<svg width="532" height="591" viewBox="0 0 532 591" fill="none" xmlns="http://www.w3.org/2000/svg">
<path d="M91.6027 111.458C90.044 116.05 87.6307 120.371 84.7627 124.327C81.9053 128.302 78.5827 131.918 75.0933 135.295C71.6067 138.686 67.924 141.827 64.232 144.896C60.5573 147.991 56.8013 150.932 53.1427 153.948C45.8181 159.939 38.5838 166.231 32.452 173.559C26.2994 180.855 21.2031 189.024 17.1698 197.622C16.1682 199.776 15.2807 201.979 14.3332 204.146C13.5264 206.375 12.6583 208.572 11.8703 210.795C10.378 215.271 8.97228 219.763 7.94215 224.344C7.44268 226.638 6.89308 228.919 6.58948 231.244L6.04468 234.714C5.90361 235.874 5.81815 237.042 5.70202 238.204L5.37909 241.679C5.30202 242.798 5.27601 243.898 5.32801 244.962C5.41868 247.084 5.88588 249.071 6.78788 250.426C7.66602 251.8 9.05402 252.602 10.8389 252.755C12.6359 252.919 14.7343 252.451 16.7837 251.73C18.8124 250.996 20.9525 249.914 22.9895 248.852C25.0233 247.742 27.0499 246.594 28.9723 245.278C36.7192 240.095 43.5473 233.392 48.9973 225.507L49.4296 225.754C45.3499 234.518 39.0379 242.355 31.276 248.45C29.3431 249.984 27.2947 251.376 25.2009 252.702C23.0515 253.967 20.9671 255.184 18.5384 256.223C16.1379 257.222 13.476 258.002 10.466 257.842C8.97442 257.756 7.39308 257.376 5.96508 256.608C4.53948 255.855 3.30042 254.72 2.40255 253.416C0.604548 250.76 0.167083 247.838 0.0274834 245.208C-0.0313166 243.878 0.00934536 242.578 0.100945 241.306C0.206145 240.051 0.400953 238.856 0.546819 237.63C0.712419 236.414 0.846284 235.191 1.03788 233.979L1.73482 230.366C2.14108 227.944 2.79468 225.58 3.40042 223.208C5.88482 213.734 9.79735 204.691 14.7556 196.358C19.6551 187.983 25.2859 180.147 31.1973 172.543C37.1337 164.968 43.3051 157.451 50.4212 150.826C53.968 147.514 57.6973 144.456 61.4454 141.482L67.0173 136.991C68.8653 135.495 70.7027 133.996 72.492 132.448C79.676 126.306 86.308 119.552 91.1507 111.252L91.6027 111.458Z" fill="#FFB5BE"/>
<path d="M95.644 113.744C95.0373 115.598 94.4907 117.483 93.8267 119.327C93.1 121.143 92.4347 122.994 91.6507 124.79C90.0987 128.39 88.44 131.954 86.5814 135.404C82.9294 142.344 78.8307 149.014 74.7893 155.654C72.7573 158.97 70.7627 162.292 68.8187 165.632C66.8533 168.959 64.9933 172.33 63.22 175.736C59.7187 182.567 56.6987 189.584 54.5774 196.894C52.356 204.179 51.0619 211.771 50.6515 219.438C50.1895 227.106 50.8015 234.855 52.34 242.42C53.224 246.174 54.1587 249.934 55.5267 253.547C56.1427 255.379 56.9294 257.144 57.664 258.928C58.4054 260.711 59.2574 262.428 60.26 264.024C61.2627 265.615 62.4347 267.084 63.856 268.212C65.2707 269.346 66.9387 270.059 68.7387 270.547C72.376 271.451 76.2653 272.052 80.0213 272.295C83.8 272.506 87.58 272.263 91.1 271.259C94.6147 270.268 97.8133 268.46 100.703 266.176C103.591 263.886 106.128 261.1 108.467 258.135C110.787 255.144 112.967 252.04 114.876 248.771C118.719 242.248 121.636 235.19 123.603 227.888C125.548 220.584 126.697 213.059 126.803 205.499C127.005 197.944 126.165 190.37 124.399 183.022C123.516 179.339 122.363 175.746 120.973 172.202C119.579 168.65 118.003 165.108 116.473 161.491C114.936 157.883 113.509 154.159 112.464 150.287C111.404 146.406 110.828 142.427 110.605 138.463C110.367 134.495 110.571 130.54 110.964 126.639C111.355 122.732 111.935 118.87 112.603 115.027L113.096 115.084C112.884 118.976 112.641 122.86 112.591 126.73C112.549 130.599 112.708 134.451 113.147 138.243C113.604 142.031 114.403 145.76 115.621 149.328C116.843 152.91 118.429 156.384 120.08 159.876C121.733 163.364 123.512 166.854 125.096 170.498C126.671 174.152 128.029 177.947 129.088 181.807C131.221 189.535 132.165 197.572 132.12 205.584C131.916 221.622 127.296 237.563 118.876 251.183C116.765 254.583 114.444 257.855 111.851 260.904C109.253 263.951 106.404 266.867 103.091 269.3C99.808 271.743 95.9853 273.662 91.92 274.53C87.8747 275.434 83.7614 275.434 79.7947 274.99C77.8054 274.774 75.844 274.443 73.908 274.04C71.9707 273.623 70.0653 273.204 68.124 272.579C66.1973 271.964 64.2614 271.007 62.6814 269.635C61.084 268.288 59.848 266.624 58.8267 264.899C57.8134 263.163 56.9734 261.362 56.2254 259.55C55.4947 257.727 54.7133 255.924 54.104 254.058C52.7507 250.371 51.69 246.588 50.7613 242.774C49.9113 238.943 49.1218 235.086 48.6906 231.172C48.378 229.226 48.2895 227.256 48.0838 225.294C48.004 223.327 47.8479 221.354 47.8665 219.379C47.8155 211.483 48.6307 203.528 50.5744 195.803C52.504 188.067 55.588 180.651 59.3147 173.699C61.1907 170.226 63.1467 166.808 65.1934 163.462C67.256 160.126 69.3933 156.848 71.5347 153.59C80.1067 140.58 89.096 127.942 95.1747 113.578L95.644 113.744Z" fill="#FFB5BE"/>
<path d="M116.101 113.988C119.22 122.499 122.488 130.862 126.533 138.791C127.525 140.782 128.584 142.732 129.701 144.642C130.787 146.568 131.947 148.478 133.132 150.367L136.739 156.035C137.969 157.915 139.145 159.836 140.339 161.756C145.092 169.448 149.443 177.546 153.128 185.874C153.997 187.978 154.967 190.039 155.752 192.174L157.003 195.35L158.137 198.568C158.531 199.638 158.913 200.711 159.229 201.806L160.291 205.059C160.904 207.254 161.584 209.443 162.088 211.672L162.88 215.016C163.133 216.135 163.32 217.266 163.543 218.392C164.024 220.64 164.283 222.923 164.591 225.204C165.073 229.776 165.323 234.391 165.159 239C165.089 243.615 164.633 248.22 163.997 252.8C163.632 255.084 163.268 257.371 162.697 259.618C162.425 260.756 162.207 261.848 161.888 263.026C161.563 264.198 161.193 265.387 160.675 266.56C160.159 267.731 159.531 268.907 158.679 270.026C157.832 271.139 156.735 272.207 155.356 272.966C153.988 273.728 152.375 274.115 150.844 274.082C149.313 274.055 147.939 273.651 146.725 273.178C144.276 272.175 142.427 270.971 140.427 269.856C138.455 268.7 136.501 267.483 134.581 266.2C130.757 263.624 127.053 260.71 123.995 257.147C120.941 253.616 118.588 249.347 117.791 244.812L118.271 244.679C119.091 246.771 120.145 248.73 121.425 250.518C122.716 252.299 124.224 253.892 125.827 255.374C129.071 258.31 132.781 260.695 136.639 262.856C138.567 263.942 140.548 264.951 142.548 265.95C144.544 266.931 146.6 268.048 148.385 268.643C150.237 269.25 151.673 269.24 152.848 268.518C154.035 267.827 155.067 266.304 155.784 264.483C156.148 263.575 156.485 262.614 156.76 261.608C157.037 260.606 157.271 259.482 157.528 258.424C158.072 256.287 158.428 254.111 158.889 251.952C159.657 247.61 160.261 243.222 160.492 238.802C161.017 229.968 160.692 221.054 159.443 212.196C158.189 203.343 155.573 194.636 151.657 186.562C147.683 178.49 142.083 171.419 136.86 164.058C134.245 160.372 131.7 156.599 129.384 152.656C128.22 150.684 127.081 148.702 126.007 146.66C124.955 144.607 123.971 142.524 123.061 140.414C119.468 131.958 116.929 123.115 115.619 114.11L116.101 113.988Z" fill="#FFB5BE"/>
<path d="M113.991 115.084C111.188 115.61 108.367 115.994 105.487 116.25C102.608 116.451 99.6493 116.59 96.5933 115.93C95.08 115.574 93.5067 115.067 92.068 114.079C90.6267 113.124 89.296 111.687 88.5867 109.938C88.2067 109.075 87.996 108.172 87.8627 107.276C87.8093 106.831 87.792 106.387 87.7627 105.947L87.748 104.851C87.716 103.391 87.768 101.928 87.848 100.468C88.1787 94.6242 89.388 88.8189 91.3493 83.2696C93.3333 77.7229 96.0653 72.4109 100.359 68.1002C102.509 65.9922 105.24 64.2589 108.291 63.7615C109.797 63.5309 111.355 63.5136 112.852 63.9136C114.344 64.2936 115.779 65.0682 116.879 66.1949C117.995 67.3029 118.776 68.6669 119.368 70.0456C119.983 71.4229 120.417 72.8376 120.832 74.2162C121.681 76.9882 122.391 79.8322 122.779 82.7296C123.572 88.5162 123.211 94.4842 121.587 100.091C120.809 102.902 119.784 105.619 118.752 108.294L117.123 112.26C116.844 112.898 116.651 113.638 116.063 114.222C115.467 114.796 114.683 114.958 113.991 115.084ZM113.899 114.595C114.577 114.466 115.26 114.295 115.685 113.847C116.095 113.395 116.285 112.708 116.491 112.031C116.913 110.686 117.261 109.316 117.527 107.932C118.081 105.17 118.312 102.355 118.459 99.5776C118.717 94.0109 118.744 88.5709 118.649 83.0695C118.603 80.3176 118.452 77.5509 118.144 74.7802C117.859 72.0202 117.379 69.2589 115.708 67.2936C114.06 65.3269 111.133 64.7949 108.623 65.4189C106.055 65.9909 103.969 67.8096 102.395 69.9109C100.795 72.0202 99.66 74.5336 98.5613 77.0189C97.4947 79.5202 96.5693 82.0802 95.8307 84.7015C94.352 89.9495 93.6107 95.3842 93.1493 100.836C93.0213 102.2 92.9507 103.57 92.8813 104.94L92.8307 105.968L92.84 106.759C92.8907 107.264 92.9307 107.768 93.092 108.219C93.3493 109.143 93.8707 109.986 94.6493 110.776C95.4427 111.542 96.4813 112.236 97.6427 112.794C99.9747 113.92 102.727 114.612 105.499 114.892C108.283 115.196 111.129 115.084 113.899 114.595Z" fill="#FFB5BE"/>
<path d="M305.417 108.592C309.019 106.839 312.773 105.506 316.552 104.168C320.349 102.9 324.204 101.698 328.199 100.879C332.192 100.09 336.325 99.5816 340.601 100.023C342.733 100.248 344.903 100.7 347.035 101.582C349.159 102.446 351.257 103.859 352.812 105.848C354.377 107.834 355.235 110.286 355.513 112.627C355.805 115.155 355.275 117.663 354.275 119.796C353.279 121.946 351.873 123.796 350.227 125.362C348.572 126.914 346.744 128.119 344.885 129.14C341.132 131.162 337.439 132.507 333.764 134.011C330.079 135.49 326.344 136.86 322.636 138.287C315.196 141.096 307.848 144.104 300.667 147.488C298.856 148.355 296.992 149.178 294.999 149.77C293.02 150.376 290.864 150.768 288.567 150.434C287.425 150.246 286.275 149.838 285.24 149.195C284.193 148.536 283.363 147.647 282.704 146.959C282.031 146.259 281.428 145.696 280.969 145.534C280.72 145.447 280.613 145.43 280.261 145.423C279.913 145.416 279.421 145.448 278.773 145.407C278.147 145.355 277.185 145.266 276.231 144.523C275.303 143.846 274.799 142.548 274.8 141.638C274.769 140.704 274.952 140.006 275.147 139.404C275.356 138.779 275.537 138.395 275.733 137.89C276.101 136.924 276.525 135.984 276.977 135.058C277.401 134.118 277.907 133.218 278.407 132.316C280.421 128.723 282.947 125.431 285.805 122.515C291.58 116.694 298.361 112.244 305.417 108.592ZM305.641 109.036C298.525 112.55 292.679 118.23 288.236 124.552C285.979 127.704 284.047 131.031 282.287 134.415C281.841 135.259 281.417 136.114 281.024 136.98C280.595 137.834 280.229 138.712 279.853 139.59C279.44 140.484 279.115 141.364 279.131 141.51C279.141 141.587 279.04 141.298 278.907 141.236C278.725 141.139 278.795 141.242 279.141 141.282C279.483 141.327 279.985 141.34 280.627 141.424C281.261 141.491 282.132 141.743 282.76 142.118C284.068 142.892 284.787 143.88 285.392 144.679C286.003 145.511 286.471 146.144 287.057 146.636C287.655 147.123 288.357 147.503 289.152 147.751C290.756 148.238 292.649 148.144 294.501 147.79C296.36 147.412 298.201 146.77 300.012 146.022C307.324 142.931 314.469 139.464 321.524 135.799C325.061 133.99 328.575 132.123 332.135 130.364C335.667 128.556 339.38 126.978 342.531 125.067C345.699 123.156 348.273 120.711 349.519 117.695C350.128 116.212 350.396 114.686 350.208 113.26C349.993 111.671 349.48 110.255 348.604 109.095C346.895 106.727 343.513 105.407 339.937 104.798C336.339 104.154 332.473 104.034 328.596 104.162C324.712 104.304 320.775 104.702 316.905 105.479C313.041 106.256 309.195 107.34 305.641 109.036Z" fill="#FFB5BE"/>
<path d="M351.936 123.203C352.08 127.035 351.428 130.912 350.184 134.584C349.567 136.424 348.797 138.219 347.872 139.931C346.987 141.664 345.899 143.291 344.687 144.811C343.469 146.331 342.077 147.696 340.663 149.006C339.933 149.643 339.212 150.279 338.443 150.859C337.704 151.474 336.936 152.046 336.175 152.618C333.133 154.895 330.035 157.128 327.528 159.871C326.229 161.227 325.317 162.716 324.168 164.326C323.596 165.12 322.96 165.9 322.176 166.628C321.385 167.332 320.403 168.034 319.121 168.264C318.489 168.395 317.823 168.348 317.2 168.222C316.555 168.082 316.016 167.808 315.549 167.558C314.636 167.036 313.915 166.572 313.421 166.526C313.031 166.418 312.319 166.739 311 166.899C309.719 167.015 308.468 166.672 307.432 166.042C306.4 165.402 305.552 164.466 305.037 163.324C304.788 162.772 304.636 162.058 304.58 161.628C304.519 161.183 304.429 160.926 304.429 160.926C304.451 160.919 304.433 160.843 304.048 160.799C303.692 160.754 303.177 160.782 302.52 160.667C301.808 160.542 301.159 160.136 300.676 159.64C300.195 159.123 299.948 158.536 299.76 157.979C299.443 156.86 299.465 155.804 299.565 154.795C299.684 153.784 299.879 152.815 300.204 151.852C300.396 151.338 300.436 151.112 300.408 151.07C300.372 150.992 300.137 150.816 299.961 150.66C299.776 150.502 299.592 150.336 299.413 150.166C298.703 149.494 298.025 148.639 297.872 147.634L298.129 147.562C298.495 148.406 299.192 148.999 299.949 149.492L300.537 149.848C300.739 149.976 300.925 150.031 301.225 150.29C301.548 150.562 301.672 151.078 301.636 151.396C301.619 151.731 301.539 151.998 301.507 152.204C301.196 153.928 301.208 155.892 301.747 157.296C302.044 157.992 302.452 158.279 302.901 158.318C303.181 158.351 303.619 158.308 304.207 158.322C304.503 158.334 304.853 158.363 305.252 158.495C305.651 158.623 306.076 158.884 306.381 159.231C307.011 159.963 307.107 160.683 307.216 161.155C307.311 161.66 307.38 161.872 307.523 162.184C307.812 162.758 308.304 163.274 308.897 163.603C309.483 163.938 310.144 164.128 310.756 164.066C311.047 164.058 311.452 163.942 311.981 163.832C312.489 163.719 313.237 163.638 313.937 163.794C315.331 164.111 316.153 164.856 316.871 165.267C317.579 165.718 318.088 165.852 318.715 165.788C319.957 165.644 321.315 164.339 322.499 162.986C323.672 161.611 325.021 160.038 326.516 158.82C329.471 156.296 332.747 154.36 335.637 151.94C338.533 149.534 340.884 146.584 342.899 143.496C344.955 140.439 346.8 137.247 348.253 133.844C349.744 130.454 350.801 126.884 351.671 123.179L351.936 123.203Z" fill="#FFB5BE"/>
<path d="M354.935 113.999C357.632 117.147 359.701 120.902 361.1 124.86C362.565 128.812 363.403 132.952 363.976 137.079C364.539 141.211 364.789 145.351 364.945 149.451C365.151 153.547 365.156 157.674 364.94 161.807C364.488 170.08 362.957 178.327 360.667 186.262C358.332 194.179 354.991 201.883 349.816 208.582C348.525 210.252 347.075 211.806 345.545 213.298C344.725 214.007 344.023 214.728 343.063 215.432C342.128 216.106 341.128 216.704 340.001 217.168C338.873 217.619 337.608 217.971 336.159 217.906C334.719 217.848 333.081 217.208 332.001 216.094C331.479 215.567 331.149 215.124 330.905 214.87C330.64 214.596 330.592 214.592 330.524 214.58C330.397 214.5 329.595 214.531 328.408 214.615C327.819 214.634 327.039 214.647 326.268 214.436C325.884 214.366 325.507 214.239 325.135 214.07C324.752 213.93 324.409 213.718 324.069 213.496C322.709 212.59 321.841 211.292 321.308 210.082C320.267 207.616 320.107 205.27 320.145 202.966C320.188 201.763 320.303 200.76 320.401 199.735L320.752 196.652C321.008 194.599 321.301 192.551 321.639 190.51C322.32 186.428 323.145 182.372 324.141 178.36C325.139 174.34 326.205 170.376 327.571 166.41C328.927 162.459 330.643 158.547 333.005 155.012C335.365 151.495 338.521 148.403 342.287 146.598L342.547 147.023C339.329 149.526 336.956 152.77 335.203 156.296C333.484 159.855 332.277 163.64 331.328 167.524C329.495 175.339 328.06 183.362 326.889 191.332C326.589 193.328 326.312 195.328 326.051 197.33L325.664 200.332C325.553 201.339 325.391 202.364 325.341 203.203C325.224 204.963 325.367 206.8 325.891 208.132C326.151 208.795 326.483 209.258 326.819 209.507C326.905 209.568 326.984 209.646 327.088 209.676C327.177 209.731 327.279 209.779 327.401 209.798C327.612 209.895 327.871 209.9 328.3 209.912C328.725 209.916 329.252 209.883 329.908 209.898C330.557 209.92 331.375 209.987 332.251 210.356C333.145 210.711 333.881 211.414 334.283 211.907L335.164 213.026C335.499 213.406 335.867 213.595 336.463 213.691C337.059 213.756 337.832 213.658 338.621 213.42C340.243 212.938 341.727 211.898 343.344 210.711C344.884 209.504 346.385 208.219 347.761 206.791C353.325 201.108 357.16 193.662 359.117 185.842C361.079 177.964 360.979 169.791 360.799 161.739C360.531 153.678 360.596 145.455 360.139 137.466C359.633 129.478 358.296 121.556 354.525 114.279L354.935 113.999Z" fill="#FFB5BE"/>
<path d="M279.843 131.148C276.341 135.018 272.803 138.648 269.495 142.486C267.817 144.378 266.224 146.334 264.608 148.263L259.835 154.123C256.599 157.991 253.243 161.908 250.732 166.368C249.465 168.548 248.528 170.926 248.237 173.344C247.909 175.747 248.564 178.175 250.225 179.41C251.835 180.678 254.124 180.8 256.471 180.674C258.86 180.488 261.38 180.166 263.803 179.758C268.681 178.868 273.42 177.358 278.148 175.743C287.647 172.58 296.877 168.138 306.655 164.55L306.897 164.984C302.815 168.226 298.524 171.128 294.057 173.811C289.588 176.483 284.9 178.87 279.953 180.742C275.005 182.603 269.775 183.835 264.467 184.415C261.787 184.664 259.177 184.824 256.421 184.668C255.035 184.571 253.596 184.344 252.183 183.847C250.775 183.348 249.367 182.542 248.324 181.36C247.265 180.21 246.655 178.714 246.423 177.279C246.204 175.83 246.316 174.42 246.567 173.086C247.093 170.415 248.159 167.97 249.309 165.624C251.58 160.976 253.633 156.111 256.479 151.679C259.305 147.244 262.885 143.332 266.743 139.784C270.616 136.255 274.868 133.124 279.541 130.752L279.843 131.148Z" fill="#FFB5BE"/>
<path d="M340.072 101.199C341.524 98.7856 343.279 96.6642 345.247 94.7682C347.224 92.8829 349.401 91.1989 351.948 89.9549C354.472 88.7269 357.284 88.0149 360.159 88.1095C361.592 88.1682 363.033 88.4562 364.38 88.9896C365.717 89.5096 367.045 90.3136 368.039 91.5282C369.032 92.7322 369.545 94.1949 369.753 95.5869C369.967 96.9896 369.908 98.3602 369.741 99.6842C369.379 102.311 368.653 104.863 367.561 107.235C365.411 111.994 361.881 116.05 357.577 118.786C361.641 115.702 364.721 111.451 366.391 106.758C367.243 104.419 367.719 101.96 367.852 99.5176C367.973 97.1216 367.569 94.6322 366.137 93.1976C364.736 91.7736 362.321 91.1855 360.148 91.2722C357.917 91.3842 355.689 92.1349 353.727 93.3042C349.824 95.6789 346.505 99.5362 344.432 103.596L340.072 101.199Z" fill="#FFB5BE"/>
<path d="M318.807 167.851C317.701 167.223 316.88 166.259 316.348 165.234C315.811 164.202 315.527 163.095 315.452 161.982C315.316 159.775 315.913 157.756 316.535 155.896L317.54 156.982C315.257 157.374 312.927 156.451 311.553 154.707C310.191 152.952 309.919 150.543 310.779 148.598L311.236 149.108C309.631 149.488 307.941 149.394 306.417 148.864C305.649 148.608 304.929 148.175 304.381 147.582C303.835 147.006 303.476 146.152 303.733 145.382C303.544 146.172 303.957 146.942 304.519 147.447C305.085 147.968 305.789 148.318 306.529 148.499C308.02 148.884 309.603 148.835 311.029 148.371L311.749 148.138L311.488 148.882C310.88 150.607 311.323 152.636 312.504 153.906C313.677 155.184 315.597 155.723 317.183 155.296L318.552 154.927L318.188 156.38C317.724 158.231 317.381 160.076 317.636 161.762C317.868 163.398 318.804 164.944 320.056 165.495L318.807 167.851Z" fill="#FFB5BE"/>
<path d="M242.819 318.503C239.845 323.366 235.875 327.63 231.564 331.371C229.417 333.262 227.195 335.052 224.933 336.764C222.679 338.491 220.424 340.188 218.164 341.854C213.664 345.216 209.284 348.615 205.344 352.414C201.425 356.252 197.809 360.427 194.417 364.814C187.62 373.542 181.601 383.112 177.609 393.608C175.619 398.84 174.093 404.272 173.059 409.76C172.585 412.491 172.252 415.286 172.423 417.97C172.579 420.616 173.38 423.26 175.204 424.64C176.993 426.03 179.667 426.175 181.984 425.502C184.373 424.81 186.583 423.368 188.775 421.747C193.192 418.447 197.336 414.782 201.188 410.831C208.903 402.918 215.309 393.8 221.025 384.282C226.821 374.794 231.781 364.75 236.621 354.604C241.436 344.444 246.12 334.13 251.46 324.146L251.915 324.347C248.091 334.987 244.432 345.646 240.257 356.183C236.119 366.73 231.381 377.116 225.604 387.012C219.787 396.87 212.76 406.107 204.469 414.127C200.328 418.134 195.867 421.834 191.023 424.98C188.601 426.563 185.884 428.1 182.759 428.738C181.181 429.058 179.553 429.107 177.944 428.806C176.344 428.51 174.745 427.819 173.479 426.678C172.216 425.544 171.372 424.047 170.931 422.544C170.477 421.036 170.328 419.514 170.333 418.032C170.387 415.071 170.837 412.242 171.427 409.442C172.676 403.882 174.2 398.416 176.081 393.054C179.76 382.328 184.483 371.788 191.067 362.347C194.336 357.632 198.06 353.178 202.308 349.227C204.425 347.242 206.676 345.415 208.941 343.647C211.247 341.938 213.585 340.296 215.937 338.716C225.336 332.414 234.996 326.755 242.416 318.211L242.819 318.503Z" fill="#FFB5BE"/>
<path d="M214.864 399.264C211.927 406.752 209.921 414.412 209.277 422.199C209.075 424.138 209.024 426.087 208.999 428.027C208.96 429.97 209.027 431.91 209.165 433.842C209.265 434.807 209.323 435.775 209.452 436.732C209.565 437.658 209.671 438.76 209.813 439.451C210.007 440.196 210.045 440.287 210.515 440.726C210.988 441.142 211.877 441.574 212.896 442.246C213.413 442.583 213.967 443.06 214.364 443.502C214.777 443.947 215.107 444.368 215.412 444.743C216.024 445.506 216.48 446.003 216.996 446.272C217.996 446.892 219.688 446.614 221.28 445.74C222.903 444.91 224.323 443.61 225.827 442.259C227.288 440.902 228.727 439.518 230.111 438.078C235.627 432.299 240.341 425.771 244.283 418.851C246.264 415.395 248.079 411.851 249.757 408.292C251.423 404.726 252.936 401.116 254.099 397.422C256.44 390.05 257.195 382.263 257.603 374.394C258.032 366.515 257.98 358.482 258.512 350.388C259.047 342.323 260.124 334.098 263.016 326.498L263.497 326.624C260.985 342.54 263.373 358.272 262.913 374.619C262.651 382.763 261.441 391.095 258.548 398.942C257.115 402.844 255.341 406.587 253.295 410.136C251.267 413.7 248.933 417.042 246.564 420.332C241.751 426.87 236.628 433.102 231.297 439.163C229.983 440.695 228.635 442.199 227.277 443.7C225.951 445.186 224.547 446.791 222.735 448.074C221.831 448.715 220.817 449.294 219.607 449.634C218.416 449.972 216.949 450.046 215.623 449.522C214.249 449.044 213.265 448.044 212.545 447.33C212.177 446.959 211.848 446.623 211.545 446.363C211.229 446.098 211.001 445.939 210.668 445.74C209.996 445.334 209.019 444.972 207.887 444.172C207.331 443.775 206.732 443.214 206.293 442.504C205.859 441.8 205.625 441.088 205.471 440.46C205.173 439.19 205.145 438.282 205 437.218C204.857 436.187 204.848 435.146 204.768 434.111C204.549 429.962 204.792 425.8 205.451 421.719C206.756 413.563 209.772 405.683 214.427 399.027L214.864 399.264Z" fill="#FFB5BE"/>
<path d="M202.455 412.628C201.607 415.172 200.185 417.39 198.532 419.392C197.7 420.391 196.795 421.326 195.827 422.191C194.857 423.098 193.824 423.806 193.027 424.388C192.612 424.686 192.245 424.954 191.925 425.295C191.587 425.626 191.269 426.018 191.021 426.484C190.507 427.404 190.235 428.584 190.301 429.764C190.432 432.114 191.484 434.555 192.973 436.278C193.701 437.154 194.599 437.766 195.336 438.067C196.125 438.332 196.615 438.34 197.488 438.124C198.355 437.912 199.581 437.367 200.643 436.946C201.188 436.715 201.741 436.518 202.295 436.32C202.569 436.216 202.853 436.135 203.132 436.043C203.423 435.96 203.695 435.836 203.779 435.808C203.887 435.77 203.817 435.798 203.703 435.948C203.6 436.092 203.601 436.194 203.637 436.154C203.717 436.083 203.784 435.498 203.872 434.844C204.027 433.599 204.208 432.354 204.441 431.111C204.912 428.624 205.459 426.14 206.385 423.668L206.884 423.683C207.653 426.208 208.044 428.723 208.359 431.232C208.513 432.49 208.616 433.743 208.692 434.996C208.727 435.588 208.833 436.268 208.612 437.418C208.492 437.978 208.247 438.672 207.737 439.295C207.227 439.934 206.621 440.314 206.173 440.554C205.699 440.806 205.388 440.912 205.081 441.016C204.768 441.12 204.459 441.239 204.14 441.332C203.508 441.53 202.877 441.728 202.236 441.894C200.921 442.239 199.809 442.628 198.191 442.776C196.601 442.992 194.465 442.54 193.16 441.416C191.809 440.326 191.107 438.924 190.609 437.631C190.109 436.32 189.836 435.015 189.533 433.763C189.239 432.504 188.941 431.251 188.707 429.95C188.477 428.654 188.24 427.283 188.365 425.784C188.447 424.306 189.105 422.651 190.073 421.472C191.04 420.278 192.052 419.527 192.976 418.803L195.852 416.594C196.824 415.86 197.804 415.126 198.84 414.418C199.859 413.694 200.905 412.978 202.068 412.316L202.455 412.628Z" fill="#FFB5BE"/>
<path d="M261.34 326.932C256.372 326.458 251.269 325.587 246.407 323.64C245.219 323.146 243.98 322.704 242.687 321.739C242.049 321.272 241.36 320.62 240.864 319.747C240.387 318.892 240.097 317.887 240.049 317.038C239.905 315.284 240.227 313.915 240.504 312.583C240.793 311.304 241.151 310.043 241.551 308.794C243.171 303.803 245.739 299.146 248.895 294.998C252.043 290.846 255.797 287.144 260.405 284.523C262.716 283.226 265.121 282.227 267.803 281.756C269.141 281.607 270.588 281.578 271.953 282.266C272.627 282.606 273.217 283.166 273.615 283.827C273.996 284.5 274.18 285.214 274.285 285.876C274.921 290.932 275.599 296.019 275.229 301.191C274.863 306.332 273.427 311.402 271.003 315.95C269.8 318.227 268.437 320.398 267.061 322.522C266.332 323.575 265.712 324.623 264.952 325.692C264.56 326.214 263.979 326.723 263.293 326.866C262.627 327.036 261.965 326.994 261.34 326.932ZM261.385 326.436C261.996 326.486 262.607 326.515 263.149 326.352C263.691 326.188 264.099 325.811 264.401 325.306C264.701 324.81 264.96 324.224 265.209 323.659C265.463 323.091 265.721 322.528 265.925 321.94C266.849 319.634 267.455 317.212 268.035 314.834C269.116 310.04 270.141 305.378 271.116 300.631C272.085 295.92 273.008 290.964 272.693 286.09C272.611 284.936 272.189 284.036 271.268 283.618C270.371 283.199 269.192 283.155 268.092 283.42C265.876 283.954 263.745 285.279 261.943 286.772C260.107 288.283 258.529 290.088 257 291.936C255.479 293.794 254.037 295.7 252.743 297.703C250.14 301.704 248.185 306.056 246.583 310.504C245.828 312.674 244.941 315.234 244.864 316.802C244.831 317.202 244.872 317.434 244.937 317.692C244.983 317.947 245.147 318.246 245.451 318.587C246.048 319.26 247.016 320.026 248.001 320.743C251.811 323.728 256.413 325.991 261.385 326.436Z" fill="#FFB5BE"/>
<path d="M279.656 261.256C264.379 220.926 244.484 182.658 225.553 143.996C224.357 141.59 223.219 139.151 222.048 136.728C221.461 135.519 220.896 134.294 220.291 133.096L218.401 129.544C215.929 124.782 213.236 120.138 210.547 115.487C205.115 106.216 199.165 97.2362 192.799 88.5615C180.084 71.1802 165.496 55.2309 150.049 40.2695C142.332 32.7709 134.285 25.6295 126.229 18.5135L123.195 15.8602L122.436 15.1975L121.624 14.4308C121.356 14.1709 121.08 13.9256 120.82 13.6482L120.069 12.7655C119.548 12.2122 119.147 11.4655 118.703 10.7975C118.345 10.0162 117.953 9.26685 117.788 8.32018C117.66 7.88284 117.628 7.39221 117.636 6.88554C117.637 6.63487 117.628 6.38686 117.652 6.13618L117.817 5.36823C117.911 4.84689 118.129 4.37085 118.392 3.9082C118.619 3.4162 118.957 3.04288 119.301 2.66556C120.712 1.19223 122.451 0.568207 124.055 0.232208C125.673 -0.0557861 127.245 -0.0531311 128.753 0.116211C131.749 0.425537 134.681 1.44287 137.225 2.78821C139.799 4.1282 142.107 5.69487 144.321 7.27486L147.663 9.66022L150.923 12.1482C155.24 15.5042 159.417 19.0309 163.421 22.7296C165.452 24.5522 167.399 26.4522 169.36 28.3429C171.268 30.2802 173.209 32.1895 175.071 34.1656C178.839 38.0816 182.5 42.0816 186.089 46.1349C193.224 54.2829 200.203 62.4989 207.171 70.7016C214.209 79.0362 220.669 87.8162 226.52 96.9629C238.219 115.271 247.701 134.827 255.68 154.88L255.224 155.08C250.477 145.395 245.564 135.808 240.269 126.45C237.665 121.747 234.891 117.146 232.088 112.57C229.223 108.032 226.313 103.528 223.277 99.1162C217.257 90.2575 210.665 81.8122 203.564 73.8615C196.316 65.8482 189.335 57.6229 182.127 49.6655C174.976 41.6562 167.655 33.8375 159.891 26.5282C156.031 22.8482 152.015 19.3509 147.869 16.0242L144.74 13.5562L141.536 11.1922C139.391 9.60684 137.239 8.11356 135.045 6.92955C132.841 5.72955 130.599 4.92957 128.227 4.64023C127.06 4.48557 125.912 4.48553 124.869 4.64954C123.855 4.84021 122.953 5.2095 122.481 5.69218C122.019 6.16284 121.856 6.66685 121.989 7.49751C122.02 7.89752 122.26 8.35486 122.432 8.81087C122.741 9.25887 122.936 9.74156 123.34 10.1789C124.704 11.9029 126.933 13.7309 128.871 15.5775C136.831 22.9029 144.512 30.5295 151.98 38.3469C166.895 54.0055 181.028 70.3815 194.089 87.5949L196.553 90.8135L198.956 94.0775C200.54 96.2655 202.183 98.4149 203.716 100.642L208.389 107.274L212.9 114.024C218.816 123.092 224.303 132.474 229.227 142.083C231.719 146.882 234.251 151.66 236.685 156.49C239.133 161.308 241.473 166.156 243.809 171.023C248.492 180.746 253.095 190.515 257.476 200.394C266.277 220.12 274.18 240.328 280.129 261.099L279.656 261.256Z" fill="#FFB5BE"/>
<path d="M286.192 251.35C283.52 239.536 280.719 227.776 277.283 216.202C273.853 204.631 269.747 193.254 264.704 182.266L264.153 181.067L265.432 181.006C272.096 180.686 278.653 178.778 284.88 176.183C291.125 173.584 297.092 170.311 303.032 167.03C297.239 170.564 291.419 174.094 285.235 176.987C279.069 179.871 272.475 182.123 265.556 182.759L266.285 181.499C271.851 192.336 276.509 203.646 280.487 215.172C284.473 226.7 287.817 238.424 291.021 250.144L286.192 251.35Z" fill="#FFB5BE"/>
<path d="M267.703 281.728C270.371 274.558 273.252 267.38 277.469 260.775C281.733 254.259 287.529 248.363 295.051 245.044C296.92 244.228 298.851 243.523 301.008 243.158C303.129 242.779 305.571 242.795 307.836 243.594C310.075 244.384 311.931 245.72 313.473 247.156C315.024 248.612 316.276 250.144 317.499 251.748C322.239 258.219 325.284 265.954 325.6 273.784L325.115 273.892C323.589 270.332 321.943 266.955 320.045 263.764C318.12 260.594 316 257.591 313.607 254.85C311.187 252.115 308.751 249.378 306.068 248.194C303.493 246.939 299.899 247.514 296.532 248.739C289.785 251.186 283.969 256.242 279.507 262.204C274.917 268.16 271.551 275.071 268.16 281.926L267.703 281.728Z" fill="#FFB5BE"/>
<path d="M273.435 284.279C276.22 278.752 279.423 273.439 283.009 268.395C284.807 265.876 286.696 263.423 288.675 261.042C290.661 258.704 292.651 256.203 295.447 254.688C296.832 253.938 298.419 253.555 299.996 253.574C301.579 253.591 303.133 254.01 304.556 254.663C307.407 256.003 309.781 258.146 311.749 260.548C315.643 265.419 318.368 271.092 320.455 276.916C322.535 282.76 324.001 288.784 325.539 294.763C327.083 300.744 328.737 306.7 330.344 312.67C333.56 324.599 336.619 336.614 338.343 348.874L338.079 348.91C336.693 342.872 335.291 336.878 333.536 330.963C331.917 325.019 330.172 319.111 328.348 313.211C326.487 307.32 324.803 301.37 323.113 295.395C321.485 289.402 320.019 283.474 317.944 277.815C315.972 272.147 313.365 266.715 309.799 262.13C308.067 259.914 305.937 257.95 303.575 256.782C301.203 255.634 298.704 255.424 296.417 256.522C294.096 257.628 292.065 259.89 290.015 262.163C287.977 264.436 286.037 266.799 284.156 269.214C282.244 271.606 280.415 274.075 278.675 276.612C276.961 279.164 275.288 281.756 273.673 284.399L273.435 284.279Z" fill="#FFB5BE"/>
<path d="M345.168 587.414L346.555 537.408C346.851 520.738 346.831 504.062 346.62 487.394C346.156 454.059 344.696 420.731 341.572 387.559C340.025 370.972 338.088 354.424 335.675 337.95C335.101 333.827 334.453 329.715 333.777 325.608C333.129 321.496 332.451 317.39 331.709 313.298C330.233 305.114 328.583 296.962 326.732 288.859C323.049 272.65 318.452 256.656 312.859 241.031C310.069 233.216 306.972 225.515 303.597 217.943C302.78 216.038 301.893 214.166 301.013 212.288L298.348 206.584C297.481 204.606 296.675 202.518 296.263 200.21C295.827 197.931 295.925 195.327 296.889 192.971L296.983 194.687C296.893 194.52 296.803 194.355 296.695 194.088L296.613 193.855C296.583 193.76 296.545 193.602 296.525 193.475C296.501 193.318 296.472 193.014 296.543 192.678C296.641 192.168 296.971 191.586 297.676 191.222C298.125 190.998 298.659 190.999 298.788 191.022C299.047 191.044 299.171 191.083 299.275 191.111C299.519 191.183 299.627 191.236 299.751 191.292C299.988 191.403 300.133 191.491 300.291 191.583C300.872 191.939 301.309 192.264 301.764 192.596L304.309 194.512L306.901 196.54C307.772 197.21 308.635 197.888 309.423 198.651C311.043 200.127 312.691 201.58 314.149 203.216C314.895 204.018 315.671 204.794 316.389 205.619L318.475 208.151C324.008 214.943 328.335 222.6 331.817 230.544C338.828 246.467 342.413 263.544 344.88 280.487C347.325 297.48 348.719 314.507 350.359 331.474C351.868 348.466 353.389 365.459 354.719 382.479C357.244 416.519 359.227 450.643 359.485 484.811C359.54 501.893 359.271 518.978 358.469 536.039C357.505 553.092 356.153 570.119 354.068 587.057L353.573 587.005C354.889 570.003 355.824 552.987 356.181 535.955C356.568 518.927 356.448 501.893 355.991 484.871C355.463 467.85 354.708 450.838 353.641 433.838C352.593 416.839 351.195 399.858 349.749 382.882C348.359 365.898 346.773 348.924 345.197 331.947C343.64 314.959 342.335 297.964 340.033 281.172C338.892 272.767 337.476 264.436 335.533 256.239C333.591 248.044 331.052 240.004 327.765 232.304C324.479 224.612 320.403 217.25 315.209 210.758L313.253 208.335C312.58 207.547 311.852 206.808 311.153 206.042C309.788 204.476 308.244 203.096 306.727 201.684C305.989 200.954 305.181 200.308 304.364 199.671L301.939 197.732L299.392 195.782C298.989 195.48 298.569 195.172 298.241 194.971L298.08 194.879C298.08 194.879 298.069 194.878 298.185 194.914C298.224 194.923 298.284 194.943 298.476 194.963C298.539 194.972 299.005 194.99 299.392 194.784C300.035 194.455 300.329 193.927 300.413 193.484C300.476 193.214 300.445 192.979 300.433 192.886C300.428 192.824 300.403 192.731 300.392 192.7L300.376 192.655L300.437 192.776L300.885 193.671L300.531 194.492C299.22 197.532 300.272 201.4 301.88 205.038L304.468 210.684C305.345 212.59 306.228 214.492 307.041 216.426C310.4 224.111 313.471 231.919 316.232 239.832C321.761 255.654 326.277 271.811 329.863 288.154C331.667 296.324 333.265 304.535 334.689 312.775C335.404 316.895 336.053 321.022 336.675 325.151C337.321 329.278 337.943 333.407 338.487 337.55C340.784 354.095 342.613 370.703 344.028 387.339C346.833 420.622 347.967 454.011 348.101 487.38C348.148 504.066 348.004 520.751 347.544 537.427L345.665 587.438L345.168 587.414Z" fill="#FFB5BE"/>
<path d="M291.593 258.519C297.705 275.632 303.816 292.748 309.725 309.944C315.555 327.166 321.183 344.464 326.401 361.904C331.585 379.344 336.784 396.84 340.363 414.728L342.903 428.164C343.615 432.67 344.371 437.164 345.029 441.672C345.631 446.192 346.175 450.719 346.705 455.242C347.069 459.79 347.525 464.322 347.804 468.87L347.311 468.936L341.584 442.294C340.537 437.88 339.593 433.448 338.597 429.031L335.503 415.802C331.241 398.204 327.327 380.504 322.572 362.994C317.849 345.479 312.707 328.064 307.359 310.71C302.085 293.328 296.605 276.003 291.121 258.678L291.593 258.519Z" fill="#FFB5BE"/>
<path d="M283.68 268.094C291.189 287.092 297.651 306.507 303.487 326.098C309.247 345.712 314.383 365.502 319.357 385.311C324.3 405.131 329.497 424.874 334.011 444.758L347.827 504.388L347.351 504.532C345.544 499.745 343.907 494.903 342.177 490.083C340.592 485.223 339.021 480.352 337.501 475.468C336.015 470.575 334.625 465.656 333.187 460.747L329.179 445.946C323.943 426.18 320 406.131 315.484 386.234C310.999 366.33 306.357 346.468 301.091 326.77C295.908 307.051 290.096 287.484 283.213 268.268L283.68 268.094Z" fill="#FFB5BE"/>
<path d="M345.365 583.621L345.485 553.444C345.509 548.415 345.544 543.381 345.323 538.381C345.097 533.386 344.587 528.399 343.371 523.592C341.112 513.871 334.881 505.747 328.705 497.944C322.423 490.172 315.409 483.002 307.715 476.672C300.02 470.355 291.597 464.919 282.596 460.746C273.601 456.57 264.009 453.686 254.221 452.316C244.441 450.939 234.441 451.144 224.823 453.095C220.043 454.103 215.371 455.608 211.135 457.852C206.904 460.083 203.125 463.084 200.392 466.852L198.516 463.42C206.932 462.79 215.524 462.139 224.22 462.968C232.924 463.788 241.376 466.21 249.356 469.478C257.367 472.728 264.905 476.852 272.167 481.398C279.425 485.954 286.372 491.038 292.803 496.726C299.241 502.396 305.22 508.608 310.513 515.369C313.169 518.742 315.627 522.267 317.947 525.875C320.227 529.512 322.28 533.281 324.184 537.117C326.059 540.971 327.704 544.926 329.179 548.939C330.603 552.971 331.844 557.066 332.797 561.227C333.72 565.395 334.4 569.608 334.859 573.838C335.273 578.075 335.395 582.329 335.268 586.566H334.769C334.569 582.351 334.137 578.166 333.504 574.015C332.803 569.875 331.885 565.781 330.739 561.756C329.527 557.75 328.217 553.78 326.637 549.912C325.031 546.059 323.263 542.276 321.281 538.609C317.285 531.29 312.576 524.395 307.263 517.996C301.92 511.621 296.029 505.715 289.679 500.343C276.969 489.654 262.592 480.743 247.415 474.164C239.8 470.966 231.852 468.614 223.728 467.684C215.585 466.762 207.227 467.228 198.803 467.722L194.143 467.994L196.927 464.288C200.193 459.944 204.577 456.624 209.268 454.254C213.976 451.875 218.995 450.331 224.063 449.335C234.2 447.42 244.601 447.362 254.721 448.923C264.843 450.479 274.691 453.591 283.885 458.008C293.087 462.428 301.627 468.112 309.389 474.66C317.165 481.206 324.139 488.644 330.367 496.626C333.461 500.635 336.456 504.708 339.084 509.083C340.389 511.272 341.583 513.542 342.575 515.908C343.547 518.283 344.331 520.731 344.907 523.22C346.071 528.199 346.493 533.284 346.632 538.335C346.763 543.392 346.636 548.42 346.525 553.451L345.863 583.632L345.365 583.621Z" fill="#FFB5BE"/>
<path d="M323.447 411.551C315.777 395.735 308.973 379.486 303.076 362.899C297.149 346.32 292.243 329.372 288.245 312.206L291.424 311.891C291.289 326.687 291.355 341.478 291.953 356.234C292.533 370.991 293.711 385.704 295.485 400.315C297.192 414.935 299.461 429.478 302.641 443.851C303.471 447.435 304.343 451.011 305.212 454.591L306.673 459.919C307.152 461.698 307.605 463.494 308.147 465.238C309.22 468.732 310.408 472.182 312.131 475.366C313.844 478.536 316.132 481.439 319.149 483.534L318.893 483.959C315.536 482.219 312.808 479.375 310.717 476.222C308.601 473.059 307.008 469.592 305.672 466.092C304.333 462.592 303.191 459.063 301.971 455.534C300.875 451.975 299.756 448.414 298.771 444.818C294.829 430.43 292.08 415.716 290.339 400.914C289.52 393.506 288.905 386.08 288.504 378.65C288.153 371.215 287.877 363.783 287.772 356.352C287.537 341.494 287.747 326.648 288.207 311.826L288.625 298.366L291.387 311.51C294.987 328.644 299.567 345.578 304.949 362.262C310.359 378.939 316.684 395.332 323.897 411.34L323.447 411.551Z" fill="#FFB5BE"/>
<path d="M363.531 88.4829C365.016 86.0762 367.337 84.2016 369.984 83.2149C372.633 82.2349 375.513 81.9136 378.311 82.2416C381.108 82.5696 383.859 83.4376 386.296 84.8909C388.709 86.3922 390.78 88.3496 392.54 90.5482C396.04 94.9909 398.213 100.264 399.863 105.572C400.707 108.232 401.317 110.943 401.98 113.642C402.695 116.331 403.184 119.067 403.707 121.798C407.773 143.703 407.453 166.166 405.496 188.242C403.485 210.364 399.879 232.239 397.015 254.168C394.081 276.102 391.316 298.056 388.859 320.044C383.925 364.023 380.251 408.116 376.637 452.21C374.767 474.254 373.233 496.324 371.699 518.4C370.965 529.442 370.199 540.481 369.569 551.531L367.479 584.678L366.981 584.664C366.98 573.588 367.109 562.512 367.301 551.438C367.512 540.363 367.901 529.293 368.235 518.22C369.036 496.079 370.319 473.958 371.676 451.84C372.491 440.792 373.3 429.743 374.231 418.703C374.673 413.18 375.203 407.667 375.739 402.154L377.344 385.612C379.615 363.571 382.171 341.56 384.905 319.576C387.613 297.588 390.629 275.64 393.811 253.718C396.929 231.782 400.775 209.971 403.02 188.004C405.295 166.08 405.941 143.827 402.237 122.059C401.757 119.344 401.315 116.623 400.647 113.95C400.029 111.264 399.464 108.56 398.672 105.93C397.125 100.676 395.072 95.5002 391.756 91.1616C390.095 89.0189 388.109 87.0922 385.841 85.6336C383.543 84.2162 380.913 83.3389 378.225 82.9816C375.533 82.6256 372.756 82.8976 370.203 83.7976C367.651 84.7069 365.416 86.4589 363.956 88.7429L363.531 88.4829Z" fill="#FFB5BE"/>
<path d="M367.703 92.6882C369.008 90.4468 371.531 89.1761 374.024 88.9028C376.537 88.6108 379.143 89.1362 381.337 90.4455C383.513 91.7509 385.273 93.6402 386.675 95.7069C388.081 97.7815 389.171 100.034 390.148 102.306C393.989 111.422 396.656 121.012 398.252 130.772C401.469 150.335 400.584 170.322 398.185 189.88C395.784 209.488 391.876 228.82 388.647 248.204C385.377 267.595 382.296 287.018 379.636 306.499C374.243 345.455 370.355 384.583 366.753 423.726C364.896 443.295 363.42 462.899 362.016 482.516C361.353 492.327 360.651 502.139 360.123 511.96C359.42 521.778 359.001 531.605 358.352 541.432L357.855 541.421C357.741 531.575 357.748 521.727 357.853 511.878C357.963 502.027 358.288 492.183 358.551 482.336C359.224 462.643 360.449 442.975 361.795 423.314C364.753 384.004 369.759 344.876 375.695 305.927C378.608 286.44 381.941 267.022 385.463 247.642C388.947 228.246 393.087 209.008 395.716 189.562C398.429 170.167 399.633 150.405 396.777 131.003C395.361 121.322 392.884 111.787 389.232 102.691C388.303 100.432 387.275 98.2148 385.951 96.1909C384.632 94.1735 382.983 92.3508 380.947 91.0828C378.933 89.8295 376.468 89.2828 374.092 89.5215C371.732 89.7429 369.375 90.8882 368.129 92.9468L367.703 92.6882Z" fill="#FFB5BE"/>
<path d="M395.82 257.579C396.859 246.558 398.024 235.552 399.256 224.556C399.865 219.056 400.452 213.555 401.128 208.063C401.804 202.59 402.333 197.051 403.361 191.552C405.313 180.57 408.585 169.968 410.704 159.18C412.856 148.39 414.288 137.415 415.044 126.403C415.679 115.386 415.723 104.299 414.619 93.3122C413.572 82.3296 411.312 71.4482 407.629 61.0975C405.78 55.9255 403.533 50.9095 400.929 46.0975C398.329 41.2762 395.269 36.7522 391.601 32.7496C387.983 28.7229 383.764 25.2323 379.041 22.7349C376.668 21.5123 374.167 20.5949 371.603 19.9709C369.021 19.4109 366.385 19.2469 363.765 19.4002L364.289 16.7709C373.5 21.3349 381.316 28.4696 387.175 36.8096C393.099 45.1523 397.113 54.6535 399.824 64.3869C402.563 74.1349 404.004 84.1816 404.507 94.2322C405.051 104.284 404.579 114.364 403.335 124.312L403.071 124.284C403.851 114.3 403.767 104.275 402.967 94.3376C402.548 89.3682 401.896 84.4229 401.015 79.5282C400.151 74.6309 399.023 69.7829 397.592 65.0335C394.719 55.5535 390.639 46.4162 384.955 38.3869C382.104 34.3869 378.831 30.6936 375.149 27.4656C371.472 24.2309 367.376 21.5042 363.033 19.2549L358.447 16.8776L363.556 16.6242C366.465 16.4802 369.381 16.7016 372.208 17.3496C375.013 18.0616 377.719 19.0963 380.252 20.4376C385.292 23.1763 389.675 26.9083 393.399 31.1429C397.14 35.3656 400.221 40.1522 402.776 45.1136C405.364 50.0722 407.461 55.2696 409.188 60.5656C412.652 71.1709 414.501 82.1922 415.525 93.2282C416.429 104.283 416.613 115.382 416.135 126.46C415.733 137.544 414.648 148.604 412.808 159.579C410.804 170.543 407.735 181.198 405.591 191.972C404.516 197.342 403.925 202.824 403.177 208.32C402.475 213.808 401.684 219.284 400.915 224.764C399.393 235.724 397.801 246.676 396.084 257.612L395.82 257.579Z" fill="#FFB5BE"/>
<path d="M372.413 473.466C374.845 461.095 378.108 448.84 382.525 436.951C386.94 425.07 392.485 413.542 399.361 402.791C401.091 400.114 402.903 397.484 404.817 394.931C406.68 392.339 408.737 389.863 410.857 387.464C415.084 382.642 419.896 378.331 425.039 374.498C430.204 370.699 435.793 367.406 441.823 365.184C443.336 364.648 444.835 364.083 446.389 363.682L448.699 363.026L451.053 362.54C454.192 361.887 457.393 361.643 460.587 361.524L462.597 361.451L461.149 362.863C446.781 376.876 435.689 393.94 427.096 411.926C418.415 429.906 411.805 448.836 407.063 468.216C402.248 487.592 398.865 507.331 396.199 527.205C395.524 532.174 394.888 537.151 394.293 542.135C393.679 547.117 393.077 552.107 392.513 557.102C391.415 567.093 390.3 577.096 389.089 587.095L388.592 587.059C388.804 576.991 389.113 566.926 389.665 556.867C389.932 551.838 390.22 546.805 390.555 541.776C390.935 536.748 391.357 531.723 391.82 526.696C393.789 506.616 396.845 486.542 402 466.922C407.224 447.338 414.245 428.14 423.933 410.302C433.685 392.51 445.827 376.112 460.045 361.752L460.608 363.091C454.416 363.228 448.299 364.736 442.66 367.227C436.996 369.698 431.831 373.187 427.08 377.108C417.572 385.03 409.931 394.859 403.081 405.207C396.265 415.59 390.611 426.73 385.675 438.206C380.808 449.716 376.664 461.571 372.897 473.588L372.413 473.466Z" fill="#FFB5BE"/>
<path d="M109.857 64.1816C110.569 61.619 111.975 59.2829 113.584 57.0923C115.28 54.9656 117.32 53.0869 119.599 51.5563C121.851 49.9736 124.371 48.8203 126.944 47.8616C129.535 46.9669 132.269 46.3896 134.959 46.0749C137.647 45.8243 140.349 45.7256 143.037 45.8869C145.72 46.0909 148.396 46.4109 150.997 47.0643C153.608 47.6643 156.148 48.5269 158.588 49.5776C160.991 50.7283 163.36 51.9043 165.481 53.4869L165.365 53.727C156.04 49.299 145.479 47.555 135.249 48.7216C130.14 49.2363 125.112 50.7616 120.675 53.3683C116.248 55.9563 112.428 59.6976 110.095 64.3016L109.857 64.1816Z" fill="#FFB5BE"/>
<path d="M114.319 65.1323C115.624 62.0549 117.944 59.4123 120.636 57.2763C123.381 55.1883 126.58 53.6842 129.943 52.7949C133.305 51.8309 136.857 51.6642 140.301 51.8309C143.757 52.0816 147.144 52.7896 150.404 53.7683C156.905 55.8589 162.879 58.9162 168.461 62.5589C171.255 64.3762 173.917 66.3856 176.447 68.5336C178.919 70.7589 181.363 72.9909 183.507 75.5189L183.331 75.7202C178.384 71.4562 173.047 67.6469 167.403 64.3669C161.748 61.1216 155.839 58.2429 149.616 56.3136C143.436 54.3709 136.769 53.4669 130.388 54.8496C124.077 56.1842 117.991 59.6909 114.545 65.2722L114.319 65.1323Z" fill="#FFB5BE"/>
<path d="M76.4134 273.119C77.8907 259.083 80.376 245.187 83.8333 231.57C81.244 245.378 79.6547 259.342 79.0733 273.314L76.4134 273.119Z" fill="#FFB5BE"/>
<path d="M81.2734 272.88C88.4907 264.159 93.8854 253.804 96.9107 242.698C94.7507 254.004 90.136 264.932 83.392 274.499L81.2734 272.88Z" fill="#FFB5BE"/>
<path d="M71.4454 272.226C71.048 261.894 71.4934 251.566 72.7627 241.376C72.3787 251.638 72.832 261.894 74.104 272.008L71.4454 272.226Z" fill="#FFB5BE"/>
<path d="M66.6787 271.595C65.524 265.282 65.3933 258.858 66.2507 252.639C66.28 258.916 67.316 265.116 69.2614 270.935L66.6787 271.595Z" fill="#FFB5BE"/>
<path d="M86.4987 272.351C88.9267 271.468 90.9787 269.256 92.896 267.026C94.8213 264.782 96.5987 262.391 98.2107 259.875C96.9893 262.602 95.5733 265.258 93.9693 267.815C93.164 269.087 92.3427 270.362 91.336 271.575C90.34 272.783 89.1347 273.93 87.6333 274.766L86.4987 272.351Z" fill="#FFB5BE"/>
<path d="M151.899 270.578C153.2 260.896 153.755 251.082 153.545 241.248C154.641 251.023 154.983 260.916 154.555 270.812L151.899 270.578Z" fill="#FFB5BE"/>
<path d="M149.075 270.115C149.416 262.331 148.701 254.439 146.92 246.731C149.555 254.191 151.192 262.066 151.74 270.079L149.075 270.115Z" fill="#FFB5BE"/>
<path d="M5.18735 252.164C5.60201 246.154 6.55202 240.2 8.01242 234.396C8.75042 231.498 9.57548 228.626 10.614 225.815C11.6635 223.018 13.0031 220.29 14.8873 217.979C13.1821 220.424 12.0728 223.2 11.2468 226.027C10.4327 228.862 9.82855 231.768 9.31708 234.674C8.30722 240.494 7.81815 246.383 7.85309 252.25L5.18735 252.164Z" fill="#FFB5BE"/>
<path d="M7.88214 253.52C9.16921 245.33 11.5775 237.38 14.9859 229.955C12.404 237.706 10.9129 245.755 10.5343 253.792L7.88214 253.52Z" fill="#FFB5BE"/>
<path d="M10.9244 253.202C12.6764 249.578 14.826 246.202 17.2984 243.154C15.5755 246.68 14.2843 250.362 13.4389 254.09L10.9244 253.202Z" fill="#FFB5BE"/>
<path d="M145.265 269.252C145.1 264.672 144.459 260.062 143.335 255.524C145.297 259.767 146.839 264.255 147.909 268.898L145.265 269.252Z" fill="#FFB5BE"/>
<path d="M104.244 115.93C103.788 123.171 102.444 130.27 100.816 137.244C99.1853 144.224 97.2507 151.095 95.552 158.012C92.0827 171.827 90.2173 186.008 88.38 200.158C89.7747 185.962 91.192 171.716 94.2467 157.714C95.736 150.719 97.4573 143.787 98.8587 136.818C100.26 129.854 101.357 122.835 101.58 115.808L104.244 115.93Z" fill="#FFB5BE"/>
<path d="M98.88 115.459C98.516 123.048 95.94 130.22 93.0067 137.026C90.068 143.858 86.7027 150.49 84.3814 157.558C86.4894 150.423 89.668 143.662 92.3907 136.771C95.1133 129.906 97.42 122.751 97.548 115.414L98.88 115.459Z" fill="#FFB5BE"/>
<path d="M108.757 115.84C107.192 122.747 105.727 129.668 105.236 136.715C104.701 143.758 104.792 150.847 105.016 157.928C105.24 165.011 105.563 172.106 105.467 179.203C105.34 186.296 104.755 193.407 103.217 200.335C104.645 193.383 105.117 186.28 105.133 179.2C105.119 172.116 104.685 165.039 104.351 157.954C104.015 150.87 103.811 143.756 104.239 136.644C104.623 129.519 105.996 122.491 107.455 115.556L108.757 115.84Z" fill="#FFB5BE"/>
<path d="M93.6814 113.799C91.3854 119.455 88.3814 124.782 85.012 129.826C81.6414 134.874 77.912 139.654 74.0974 144.346C66.476 153.724 58.444 162.802 52.0182 173.066C58.2534 162.684 66.14 153.432 73.5774 143.93C77.2987 139.175 80.9254 134.346 84.176 129.278C87.424 124.215 90.2907 118.902 92.4414 113.308L93.6814 113.799Z" fill="#FFB5BE"/>
<path d="M115.197 114.956C114.249 122.064 115.18 129.338 117.132 136.267C119.081 143.22 121.981 149.89 125.064 156.45C128.148 163.016 131.319 169.576 133.773 176.428C136.223 183.259 137.939 190.45 137.893 197.731C137.827 190.45 136.007 183.312 133.461 176.543C130.912 169.751 127.652 163.259 124.465 156.736C121.277 150.212 118.256 143.556 116.172 136.543C114.088 129.558 113.011 122.138 113.875 114.794L115.197 114.956Z" fill="#FFB5BE"/>
<path d="M92.3147 113.002C90.6573 117.918 88.1813 122.503 85.2707 126.738C82.356 130.979 79.0107 134.887 75.4907 138.6C68.444 146.028 60.708 152.728 53.9747 160.424C60.5387 152.584 68.1493 145.695 75.0013 138.147C78.4253 134.375 81.6573 130.424 84.44 126.18C87.22 121.943 89.5413 117.396 91.048 112.59L92.3147 113.002Z" fill="#FFB5BE"/>
<path d="M116.164 114.556C115.751 120.011 116.391 125.532 117.779 130.851C119.164 136.18 121.269 141.318 123.752 146.255C128.724 156.142 134.867 165.479 139.193 175.719C134.664 165.567 128.356 156.39 123.164 146.559C120.564 141.643 118.332 136.499 116.815 131.112C115.296 125.735 114.521 120.099 114.833 114.471L116.164 114.556Z" fill="#FFB5BE"/>
<path d="M281.993 143.107C285.16 138.247 289.317 134.128 294.072 131.059C289.711 134.666 286.176 139.155 283.729 144.1L281.993 143.107Z" fill="#FFB5BE"/>
<path d="M284.22 145.274C285.34 143.972 286.488 142.644 287.776 141.452C289.06 140.264 290.503 139.216 292.093 138.563C290.66 139.514 289.508 140.768 288.523 142.119C287.533 143.476 286.699 144.938 285.856 146.424L284.22 145.274Z" fill="#FFB5BE"/>
<path d="M279.859 141.778C281.691 138.144 284.461 135.107 287.735 133.008C284.867 135.635 282.789 138.979 281.713 142.528L279.859 141.778Z" fill="#FFB5BE"/>
<path d="M286.664 146.674L290.585 144.452L288.012 148.151L286.664 146.674Z" fill="#FFB5BE"/>
<path d="M352.996 122.227C353.875 134.47 354.18 146.78 353.427 159.05C352.681 171.312 350.833 183.536 347.484 195.367C346.639 198.322 345.673 201.258 344.432 204.088C343.811 205.503 343.123 206.89 342.347 208.23C341.96 208.9 341.548 209.556 341.12 210.202C340.685 210.842 340.193 211.531 339.411 211.967C338.617 212.43 337.563 212.278 336.868 211.835C336.148 211.414 335.596 210.866 335.001 210.434C333.871 209.458 332.359 209.607 330.787 209.532C330.005 209.49 329.156 209.292 328.469 208.831C327.772 208.383 327.244 207.708 326.905 206.982C326.227 205.51 326.136 203.916 326.064 202.391C325.416 190.138 326.933 177.776 330.56 166.079C327.092 177.827 325.752 190.171 326.564 202.367C326.651 203.876 326.777 205.42 327.412 206.738C328.02 208.079 329.345 208.907 330.825 208.908C331.565 208.95 332.337 208.902 333.137 208.987C333.939 209.051 334.776 209.395 335.405 209.876C336.052 210.339 336.609 210.867 337.223 211.21C337.824 211.56 338.491 211.63 339.053 211.307C339.62 210.988 340.065 210.394 340.469 209.77C340.877 209.134 341.272 208.488 341.64 207.827C342.38 206.507 343.037 205.139 343.628 203.743C344.808 200.947 345.723 198.039 346.523 195.099C349.687 183.308 351.355 171.152 351.929 158.968C352.512 146.776 352.041 134.551 351.003 122.384L352.996 122.227Z" fill="#FFB5BE"/>
<path d="M277.684 139.772C271.797 144.995 265.929 150.22 260.697 156.04C258.08 158.944 255.653 162.014 253.477 165.254C252.424 166.887 251.305 168.528 250.548 170.254C249.771 171.971 249.521 173.867 250.051 175.659C250.567 177.395 251.679 179.17 253.444 179.582C255.269 179.99 257.279 180.134 259.209 180.204C263.112 180.323 267.029 179.871 270.861 179.054C278.545 177.396 285.817 174.203 292.876 170.743C285.892 174.351 278.685 177.706 270.972 179.54C267.125 180.447 263.172 180.99 259.195 180.955C257.196 180.918 255.251 180.835 253.221 180.428C252.181 180.203 251.195 179.526 250.551 178.702C249.888 177.883 249.399 176.943 249.091 175.942C248.441 173.942 248.697 171.692 249.511 169.818C250.304 167.915 251.391 166.264 252.431 164.571C254.576 161.227 256.979 158.052 259.572 155.051C264.752 149.035 270.564 143.639 276.341 138.291L277.684 139.772Z" fill="#FFB5BE"/>
<path d="M323.095 163.399C322.199 162.38 321.893 161.043 321.831 159.831C321.76 158.603 321.897 157.4 321.953 156.25C321.991 155.106 321.901 153.938 321.493 152.899C321.093 151.842 320.285 151.062 319.144 150.76C318.599 150.575 317.935 150.31 317.569 149.728C317.205 149.168 317.132 148.538 317.036 147.96C316.892 146.806 316.416 145.728 315.639 144.856C314.119 143.124 311.591 142.172 309.288 142.83C311.568 142.09 314.181 142.946 315.824 144.687C316.661 145.555 317.217 146.706 317.405 147.896C317.519 148.472 317.624 149.052 317.931 149.482C318.228 149.919 318.744 150.116 319.303 150.287C319.86 150.446 320.495 150.688 320.971 151.122C321.459 151.542 321.819 152.086 322.069 152.658C322.568 153.812 322.697 155.054 322.703 156.263C322.685 157.471 322.597 158.632 322.703 159.766C322.803 160.89 323.121 161.974 323.837 162.728L323.095 163.399Z" fill="#FFB5BE"/>
<path d="M316.564 162.304L313.463 164.156L315.937 161.526L316.564 162.304Z" fill="#FFB5BE"/>
<path d="M316.595 159.539L309.829 164.288L315.972 158.756L316.595 159.539Z" fill="#FFB5BE"/>
<path d="M316.783 157.116C313.689 159.046 310.677 161.118 307.757 163.327C310.464 160.862 313.287 158.514 316.215 156.292L316.783 157.116Z" fill="#FFB5BE"/>
<path d="M314.347 156.482L306.828 161.076L313.803 155.643L314.347 156.482Z" fill="#FFB5BE"/>
<path d="M312.337 155.054C309.912 156.436 307.551 157.948 305.265 159.583C307.34 157.69 309.519 155.896 311.791 154.216L312.337 155.054Z" fill="#FFB5BE"/>
<path d="M311.16 152.675L301.711 158.54L310.595 151.851L311.16 152.675Z" fill="#FFB5BE"/>
<path d="M310.968 150.48L300.872 156.284L310.444 149.628L310.968 150.48Z" fill="#FFB5BE"/>
<path d="M310.216 149.222C307.045 150.666 303.935 152.262 300.969 154.118C303.811 152.076 306.828 150.278 309.921 148.623L310.216 149.222Z" fill="#FFB5BE"/>
<path d="M306.588 148.9L301.208 151.232L306.455 148.595L306.588 148.9Z" fill="#FFB5BE"/>
<path d="M304.816 147.958L300.551 150.095L304.665 147.66L304.816 147.958Z" fill="#FFB5BE"/>
<path d="M304.155 147.22C302.624 148.086 301.035 148.839 299.404 149.474C300.991 148.736 302.523 147.887 303.981 146.936L304.155 147.22Z" fill="#FFB5BE"/>
<path d="M347.351 107.135C336.152 106.578 324.721 109.659 315.221 115.882C324.469 109.292 335.889 105.683 347.391 105.802L347.351 107.135Z" fill="#FFB5BE"/>
<path d="M349.504 109.334C345.363 109.523 341.217 110.228 337.196 111.443C341.067 109.811 345.165 108.65 349.371 108.007L349.504 109.334Z" fill="#FFB5BE"/>
<path d="M343.92 105.231C337.601 104.488 331.08 105.06 324.904 106.938C330.937 104.64 337.489 103.587 344.029 103.902L343.92 105.231Z" fill="#FFB5BE"/>
<path d="M355.287 115.503C357.567 125.607 358.585 135.964 358.328 146.263C358.14 135.963 356.677 125.714 353.992 115.824L355.287 115.503Z" fill="#FFB5BE"/>
<path d="M353.891 118.479C355.247 125.007 355.789 131.675 355.519 138.283C355.345 131.672 354.356 125.111 352.595 118.792L353.891 118.479Z" fill="#FFB5BE"/>
<path d="M351.54 128.516C351.871 141.335 350.631 154.178 347.863 166.67C350.413 154.131 351.424 141.295 350.873 128.539L351.54 128.516Z" fill="#FFB5BE"/>
<path d="M350.249 132.867C348.683 146.824 346.292 160.683 343.097 174.347C346.076 160.635 348.243 146.752 349.587 132.798L350.249 132.867Z" fill="#FFB5BE"/>
<path d="M348.649 137.77C346.684 146.942 344.376 156.035 341.737 165.028C344.163 155.976 346.251 146.838 347.996 137.638L348.649 137.77Z" fill="#FFB5BE"/>
<path d="M346.576 140.754C344.723 147.028 342.564 153.207 340.109 159.262C342.357 153.127 344.301 146.89 345.933 140.576L346.576 140.754Z" fill="#FFB5BE"/>
<path d="M343.412 145.328C341.911 149.866 339.976 154.248 337.651 158.399C339.78 154.144 341.497 149.695 342.773 145.134L343.412 145.328Z" fill="#FFB5BE"/>
<path d="M301.056 153.143C294.673 157.052 288.573 161.44 282.824 166.26C288.428 161.272 294.408 156.695 300.699 152.579L301.056 153.143Z" fill="#FFB5BE"/>
<path d="M300.212 150.496C292.244 154.774 284.499 159.479 277.02 164.587C284.371 159.298 292.008 154.396 299.891 149.914L300.212 150.496Z" fill="#FFB5BE"/>
<path d="M298.665 148.728L276.249 160.39L298.351 148.142L298.665 148.728Z" fill="#FFB5BE"/>
<path d="M294.176 149.254L277.759 157.344L293.889 148.651L294.176 149.254Z" fill="#FFB5BE"/>
<path d="M286.469 148.867L276.001 154.416L286.14 148.287L286.469 148.867Z" fill="#FFB5BE"/>
<path d="M283.671 146.81L276.58 150.55L283.336 146.232L283.671 146.81Z" fill="#FFB5BE"/>
<path d="M300.651 157.744L291.083 162.848L300.344 157.152L300.651 157.744Z" fill="#FFB5BE"/>
<path d="M303.252 160.183C300.613 161.832 297.876 163.312 295.065 164.612C297.776 163.114 300.388 161.448 302.879 159.63L303.252 160.183Z" fill="#FFB5BE"/>
<path d="M174.832 425.719C177.271 419.578 180.56 413.828 184.551 408.679C181.107 414.208 178.472 420.184 176.725 426.362L174.832 425.719Z" fill="#FFB5BE"/>
<path d="M178.384 426.27C180.645 422.171 183.261 418.303 186.181 414.722C183.807 418.686 181.805 422.838 180.199 427.108L178.384 426.27Z" fill="#FFB5BE"/>
<path d="M171.197 422.219C173.215 417.298 175.969 412.739 179.308 408.734C176.507 413.132 174.412 417.919 173.092 422.859L171.197 422.219Z" fill="#FFB5BE"/>
<path d="M212.548 443.58C224.864 434.776 235.288 423.207 242.812 409.899C235.876 423.522 225.899 435.667 213.747 445.182L212.548 443.58Z" fill="#FFB5BE"/>
<path d="M209.195 441.626C214.716 437.394 219.621 432.271 223.659 426.479C220.185 432.626 215.735 438.278 210.487 443.154L209.195 441.626Z" fill="#FFB5BE"/>
<path d="M214.928 445.527C217.851 444.098 220.52 442.083 222.977 439.823C225.44 437.56 227.707 435.054 229.963 432.547C227.965 435.264 225.959 437.983 223.691 440.524C221.427 443.06 218.881 445.428 215.9 447.276L214.928 445.527Z" fill="#FFB5BE"/>
<path d="M209.693 408.766C204.167 418.538 199.136 428.6 194.629 438.9C198.829 428.471 203.565 418.248 208.816 408.286L209.693 408.766Z" fill="#FFB5BE"/>
<path d="M206.349 411.782C201.088 419.86 196.355 428.296 192.192 437.018C196.052 428.159 200.5 419.544 205.503 411.251L206.349 411.782Z" fill="#FFB5BE"/>
<path d="M201.945 415.835L191.356 433.104L201.08 415.334L201.945 415.835Z" fill="#FFB5BE"/>
<path d="M197.843 420.171L190.175 431.463L197.015 419.611L197.843 420.171Z" fill="#FFB5BE"/>
<path d="M208.072 416.951C203.595 424.054 199.796 431.602 196.751 439.46C199.483 431.488 202.991 423.764 207.216 416.435L208.072 416.951Z" fill="#FFB5BE"/>
<path d="M206.82 423.03L199.177 438.57L205.911 422.615L206.82 423.03Z" fill="#FFB5BE"/>
<path d="M245.657 322.708C235.916 336.21 225.441 349.158 214.3 361.478C224.939 348.722 234.861 335.391 244.012 321.571L245.657 322.708Z" fill="#FFB5BE"/>
<path d="M248.743 323.606L230.863 349.182L247.047 322.546L248.743 323.606Z" fill="#FFB5BE"/>
<path d="M259.756 326.652C257.337 337.606 256.211 348.848 254.751 360.044C253.295 371.227 251.485 382.474 247.711 393.134C251.167 382.367 252.633 371.13 253.757 359.93C254.887 348.716 255.676 337.424 257.797 326.25L259.756 326.652Z" fill="#FFB5BE"/>
<path d="M255.981 325.999C251.883 339.638 248.497 353.51 245.849 367.54C247.84 353.402 250.579 339.352 254.053 325.467L255.981 325.999Z" fill="#FFB5BE"/>
<path d="M98.872 109.639C100.912 109.891 102.795 110.235 104.723 110.439C106.647 110.678 108.557 110.771 110.601 110.994C108.707 111.82 106.601 111.979 104.569 111.762C102.543 111.507 100.528 110.874 98.872 109.639Z" fill="#FFB5BE"/>
<path d="M104.971 107.782C106.428 107.51 107.784 107.56 109.149 107.636C110.511 107.754 111.859 107.898 113.263 108.378C111.892 108.955 110.46 109.047 109.053 108.966C107.649 108.842 106.247 108.546 104.971 107.782Z" fill="#FFB5BE"/>
<path d="M112.969 110.491C113.3 110 113.501 109.882 113.735 109.84C113.969 109.839 114.188 109.923 114.596 110.355C114.479 110.942 114.156 111.124 113.845 111.17C113.531 111.174 113.184 111.047 112.969 110.491Z" fill="#FFB5BE"/>
<path d="M98.7893 107.206C99.3147 106.78 99.7547 106.755 100.175 106.822C100.587 106.93 100.977 107.135 101.281 107.74C100.755 108.168 100.315 108.195 99.896 108.124C99.4854 108.014 99.0947 107.808 98.7893 107.206Z" fill="#FFB5BE"/>
<path d="M101.436 104.311C102.375 103.983 103.189 104 104.011 104.071C104.828 104.183 105.625 104.35 106.467 104.882C105.616 105.407 104.723 105.474 103.86 105.395C103.001 105.275 102.147 105.01 101.436 104.311Z" fill="#FFB5BE"/>
<path d="M110.161 105.024C110.997 104.623 111.703 104.542 112.429 104.492C113.159 104.482 113.867 104.507 114.733 104.842C114.108 105.538 113.287 105.774 112.483 105.824C111.676 105.835 110.841 105.666 110.161 105.024Z" fill="#FFB5BE"/>
<path d="M106.028 101.587C107.364 101.22 108.608 101.171 109.868 101.14C111.128 101.15 112.373 101.182 113.715 101.532C112.511 102.23 111.188 102.444 109.877 102.474C108.568 102.46 107.241 102.264 106.028 101.587Z" fill="#FFB5BE"/>
<path d="M110.161 96.8896C111.02 96.4002 111.835 96.2882 112.66 96.2469C113.485 96.2456 114.305 96.3162 115.188 96.7669C114.399 97.3695 113.544 97.5376 112.692 97.5789C111.84 97.5776 110.977 97.4509 110.161 96.8896Z" fill="#FFB5BE"/>
<path d="M99.2347 97.3135C100.275 97.1242 101.124 97.1909 101.997 97.2642C102.868 97.3762 103.712 97.4922 104.688 97.9028C103.835 98.5455 102.82 98.6749 101.856 98.5895C100.895 98.4655 99.932 98.1202 99.2347 97.3135Z" fill="#FFB5BE"/>
<path d="M108.372 91.8136C109.679 91.5002 110.876 91.4989 112.089 91.5149C113.3 91.5709 114.496 91.6482 115.779 92.0456C114.6 92.7016 113.312 92.8682 112.048 92.8469C110.783 92.7856 109.509 92.5389 108.372 91.8136Z" fill="#FFB5BE"/>
<path d="M103.96 93.0469C104.825 92.9682 105.42 93.0882 106.043 93.2322C106.656 93.4122 107.231 93.6029 107.944 94.1042C107.264 94.6642 106.436 94.6989 105.701 94.5202C104.975 94.3082 104.275 93.8682 103.96 93.0469Z" fill="#FFB5BE"/>
<path d="M107.636 86.4722C109.311 86.2389 110.869 86.2615 112.448 86.2535C114.025 86.2855 115.583 86.2882 117.255 86.5522C115.747 87.3322 114.08 87.5815 112.437 87.5855C110.793 87.5509 109.132 87.2762 107.636 86.4722Z" fill="#FFB5BE"/>
<path d="M116.824 80.5549C115.943 81.2709 114.848 81.4682 113.799 81.4215C112.751 81.3389 111.689 81.0056 110.905 80.1816C112.017 79.9976 112.935 80.0495 113.883 80.0922C114.828 80.1708 115.745 80.2349 116.824 80.5549Z" fill="#FFB5BE"/>
<path d="M356.644 108.756C357.661 109.158 358.299 110.071 358.623 111.039C358.917 112.016 358.921 113.131 358.32 114.044C357.86 113.068 357.631 112.27 357.353 111.442C357.105 110.603 356.833 109.816 356.644 108.756Z" fill="#FFB5BE"/>
<path d="M354.212 102.743C355.488 102.892 356.563 103.583 357.425 104.438C358.264 105.319 358.932 106.408 359.049 107.688C358.016 106.942 357.265 106.155 356.473 105.37C355.708 104.559 354.939 103.791 354.212 102.743Z" fill="#FFB5BE"/>
<path d="M360.489 104.615C361.523 105.075 362.185 105.966 362.605 106.924C362.991 107.896 363.156 108.995 362.752 110.052C362.105 109.138 361.751 108.298 361.375 107.436C361.031 106.56 360.685 105.716 360.489 104.615Z" fill="#FFB5BE"/>
<path d="M355.511 99.5442C356.384 99.4109 357.104 99.7469 357.692 100.206C358.253 100.695 358.719 101.34 358.747 102.226C357.897 102.008 357.365 101.643 356.841 101.232C356.343 100.791 355.884 100.338 355.511 99.5442Z" fill="#FFB5BE"/>
<path d="M350.596 100.502C351.115 100.179 351.443 100.219 351.727 100.342C351.989 100.503 352.208 100.752 352.236 101.363C351.716 101.687 351.388 101.648 351.105 101.522C350.843 101.358 350.625 101.11 350.596 100.502Z" fill="#FFB5BE"/>
<path d="M361.863 100.883C362.911 100.976 363.731 101.659 364.267 102.47C364.777 103.298 365.049 104.331 364.689 105.319C364.005 104.54 363.597 103.874 363.143 103.186C362.715 102.482 362.283 101.828 361.863 100.883Z" fill="#FFB5BE"/>
<path d="M364.803 98.5336C365.48 98.5189 365.86 98.8576 366.104 99.2469C366.313 99.6576 366.403 100.159 366.032 100.73C365.4 100.499 365.145 100.226 364.941 99.8989C364.772 99.5536 364.671 99.1936 364.803 98.5336Z" fill="#FFB5BE"/>
<path d="M247.828 316.972C248.893 317.454 249.671 318.062 250.467 318.68C251.236 319.332 251.987 319.97 252.673 320.918C251.495 320.907 250.481 320.388 249.624 319.715C248.792 319.01 248.08 318.122 247.828 316.972Z" fill="#FFB5BE"/>
<path d="M255.267 322.166C256.715 322.424 257.949 322.823 259.231 323.164C260.501 323.542 261.76 323.848 263.131 324.388C261.743 324.908 260.248 324.819 258.867 324.447C257.496 324.038 256.179 323.334 255.267 322.166Z" fill="#FFB5BE"/>
<path d="M252.069 317.163C253.669 317.883 255.065 318.662 256.537 319.352C257.993 320.075 259.469 320.687 261.025 321.5C259.273 321.73 257.524 321.291 255.957 320.552C254.405 319.779 252.976 318.678 252.069 317.163Z" fill="#FFB5BE"/>
<path d="M258.344 316.886C259.537 317.06 260.495 317.464 261.463 317.892C262.412 318.356 263.337 318.831 264.236 319.636C263.04 319.846 261.92 319.558 260.899 319.1C259.893 318.607 258.952 317.934 258.344 316.886Z" fill="#FFB5BE"/>
<path d="M250.563 313.175C251.519 313.047 252.301 313.284 253.043 313.611C253.765 313.975 254.447 314.427 254.952 315.251C253.995 315.383 253.213 315.144 252.472 314.816C251.751 314.45 251.069 313.998 250.563 313.175Z" fill="#FFB5BE"/>
<path d="M257.34 312.138C258.661 312.263 259.779 312.658 260.9 313.079C262.005 313.54 263.087 314.022 264.132 314.843C262.813 315.044 261.571 314.762 260.407 314.318C259.257 313.836 258.16 313.187 257.34 312.138Z" fill="#FFB5BE"/>
<path d="M263.239 309.324C264.012 309.143 264.567 309.268 265.108 309.458C265.636 309.686 266.127 309.97 266.571 310.631C265.857 310.994 265.207 310.907 264.621 310.698C264.051 310.451 263.517 310.071 263.239 309.324Z" fill="#FFB5BE"/>
<path d="M256.921 306.327C257.795 306.238 258.443 306.459 259.068 306.747C259.675 307.071 260.24 307.456 260.692 308.211C259.84 308.436 259.123 308.243 258.471 307.939C257.839 307.598 257.253 307.14 256.921 306.327Z" fill="#FFB5BE"/>
<path d="M262.328 303.706C263.297 303.692 264.028 303.948 264.756 304.251C265.468 304.592 266.144 304.971 266.775 305.707C265.84 305.984 264.984 305.795 264.209 305.467C263.451 305.102 262.743 304.587 262.328 303.706Z" fill="#FFB5BE"/>
<path d="M265.776 300.023C266.469 299.94 266.809 299.983 267.179 300.09C267.537 300.224 267.835 300.395 268.339 300.88C267.917 301.456 267.275 301.514 266.755 301.354C266.245 301.166 265.767 300.734 265.776 300.023Z" fill="#FFB5BE"/>
<path d="M268.229 296.459C268.775 296.095 269.184 296.116 269.56 296.227C269.921 296.376 270.249 296.619 270.441 297.25C269.895 297.616 269.485 297.595 269.111 297.482C268.749 297.33 268.42 297.086 268.229 296.459Z" fill="#FFB5BE"/>
<path d="M122.689 4.28824C123.164 6.45624 124.54 8.35754 126.176 9.98688C127.817 11.6255 129.717 13.0762 131.513 14.6535L136.957 19.3043L142.272 24.1016L144.921 26.5096L147.504 28.9869C149.22 30.6442 150.963 32.2762 152.656 33.9562C155.999 37.3615 159.395 40.7149 162.613 44.2389C175.691 58.1429 187.627 73.0829 198.693 88.6109C204.205 96.3949 209.468 104.351 214.547 112.42C219.553 120.534 224.453 128.715 229.041 137.071C233.683 145.395 238.115 153.851 241.936 162.588C245.748 171.32 248.919 180.364 250.879 189.698C248.865 180.376 245.643 171.358 241.783 162.655C237.913 153.948 233.439 145.526 228.751 137.234C224.116 128.908 219.172 120.762 214.124 112.686C209.003 104.655 203.7 96.7389 198.152 88.9989C187.009 73.5562 175.009 58.7162 161.885 44.9242C158.656 41.4282 155.248 38.1042 151.896 34.7282C150.197 33.0615 148.451 31.4469 146.731 29.8043L144.141 27.3483L141.487 24.9656L136.164 20.2149L130.711 15.6123C128.92 14.0549 127.011 12.6216 125.264 10.9016C123.539 9.20158 121.96 7.10823 121.387 4.57756L122.689 4.28824Z" fill="#FFB5BE"/>
<path d="M367.353 18.4603C374.443 20.5843 380.303 25.5109 385.112 30.9896C387.535 33.7482 389.752 36.6789 391.875 39.6709C393.992 42.6683 395.995 45.7496 397.823 48.9362C401.501 55.2922 404.405 62.1176 406.311 69.2229C408.255 76.3176 409.393 83.6029 410.216 90.8949C411.86 105.491 412.259 120.22 411.579 134.895C410.891 149.57 409.129 164.2 406.231 178.616L404.924 178.347C407.915 164.026 409.781 149.463 410.577 134.844C411.364 120.226 411.079 105.536 409.547 90.9682C408.783 83.6882 407.703 76.4269 405.824 69.3536C403.981 62.2722 401.149 55.4682 397.529 49.1029C395.733 45.9136 393.757 42.8242 391.669 39.8163C389.573 36.8136 387.381 33.8696 384.984 31.1002C380.228 25.5989 374.425 20.6403 367.353 18.4603Z" fill="#FFB5BE"/>
<path d="M460.033 364.015C443.509 375.82 429.836 391.42 419.148 408.732C408.371 426.067 401.223 445.403 395.421 464.986C389.651 484.615 385.413 504.678 380.947 524.671L367.623 584.675L380.293 524.528C384.541 504.492 388.56 484.375 394.136 464.615C399.737 444.916 406.717 425.354 417.435 407.692C428.056 390.068 441.739 374.086 458.476 361.85L460.033 364.015Z" fill="#FFB5BE"/>
<path d="M202.023 462.798C219.933 458.15 238.98 458.07 256.851 462.658C265.801 464.895 274.411 468.396 282.475 472.83C290.5 477.336 298.017 482.762 304.672 489.11C308.004 492.274 311.163 495.621 314.071 499.179C316.96 502.748 319.66 506.476 322.101 510.356C324.553 514.23 326.813 518.211 329.06 522.19C331.303 526.169 333.561 530.148 335.632 534.233C339.86 542.367 342.797 551.163 344.419 560.166C346.096 569.168 346.676 578.323 346.852 587.451C346.565 578.326 345.873 569.183 344.092 560.227C342.361 551.266 339.343 542.578 335.037 534.539C332.929 530.499 330.629 526.556 328.337 522.604C326.044 518.654 323.741 514.715 321.26 510.895C318.788 507.071 316.073 503.42 313.172 499.924C310.253 496.442 307.089 493.17 303.76 490.083C297.113 483.894 289.631 478.632 281.676 474.291C273.68 470.023 265.18 466.687 256.368 464.599C238.775 460.307 220.119 460.63 202.716 465.374L202.023 462.798Z" fill="#FFB5BE"/>
<path d="M292.709 322.058C303.927 382.656 319.205 442.532 338.417 501.152C318.363 442.815 302.204 383.108 290.091 322.562L292.709 322.058Z" fill="#FFB5BE"/>
<path d="M299.776 195.938C308.407 216.715 321.189 235.592 329.533 256.68C331.601 261.944 333.417 267.322 334.772 272.82C336.132 278.316 337.131 283.89 337.931 289.48C338.729 295.074 339.331 300.688 339.901 306.3C340.468 311.912 341.012 317.527 341.519 323.146C345.575 368.092 347.524 413.222 347.387 458.339C347.303 413.222 345.129 368.114 340.855 323.207C340.32 317.595 339.748 311.986 339.156 306.378C338.557 300.772 337.929 295.171 337.107 289.6C336.281 284.032 335.259 278.494 333.883 273.044C332.513 267.594 330.685 262.27 328.604 257.05C320.217 236.14 307.355 217.348 298.545 196.451L299.776 195.938Z" fill="#FFB5BE"/>
<path d="M148.735 51.2522C149.632 51.0469 150.552 51.1415 151.423 51.3722C152.287 51.6255 153.123 52.0215 153.783 52.6642C152.88 52.4989 152.069 52.2495 151.239 52.0282C150.415 51.7842 149.592 51.5775 148.735 51.2522Z" fill="#FFB5BE"/>
<path d="M156.873 51.9402C157.661 51.8922 158.401 52.0855 159.104 52.3549C159.451 52.5042 159.793 52.6628 160.108 52.8775C160.425 53.0868 160.732 53.3122 160.995 53.6108C160.6 53.5642 160.241 53.4588 159.885 53.3535C159.527 53.2548 159.189 53.1175 158.848 52.9868C158.173 52.6988 157.511 52.4029 156.873 51.9402Z" fill="#FFB5BE"/>
<path d="M156.721 54.1682C157.724 54.1589 158.689 54.4536 159.579 54.8763C160.457 55.3203 161.28 55.9029 161.885 56.7029C160.959 56.3309 160.132 55.8949 159.277 55.4882C158.435 55.0589 157.584 54.6722 156.721 54.1682Z" fill="#FFB5BE"/>
<path d="M164.851 58.307C165.469 58.071 166.065 58.2323 166.555 58.5203C167.031 58.8309 167.44 59.2936 167.501 59.955C166.857 59.8323 166.447 59.6163 166.027 59.3683C165.623 59.1003 165.245 58.8283 164.851 58.307Z" fill="#FFB5BE"/>
<path d="M139.72 49.7549C140.537 49.3602 141.355 49.2681 142.172 49.2508C142.58 49.2588 142.989 49.2802 143.399 49.3575C143.608 49.3922 143.793 49.4415 144.025 49.5042C144.153 49.5495 144.267 49.6109 144.368 49.7015C144.473 49.7775 144.548 49.9655 144.459 50.0615C144.357 49.8642 144.153 49.9455 143.999 49.9935C143.823 50.0495 143.597 50.1055 143.4 50.1375C142.992 50.2189 142.583 50.2402 142.173 50.2495C141.356 50.2348 140.539 50.1469 139.72 49.7549Z" fill="#FFB5BE"/>
<path d="M128.624 51.0402C129.659 50.3576 130.827 50.0295 132.005 49.8522C133.188 49.7042 134.403 49.7055 135.581 50.0882C134.415 50.4975 133.284 50.6722 132.141 50.8429C130.995 50.9829 129.857 51.1189 128.624 51.0402Z" fill="#FFB5BE"/>
<path d="M308.372 255.019C309.207 255.188 309.849 255.592 310.445 256.055C311.023 256.54 311.552 257.086 311.888 257.867C311.053 257.7 310.412 257.295 309.816 256.831C309.241 256.344 308.711 255.799 308.372 255.019Z" fill="#FFB5BE"/>
<path d="M314.303 259.027C315.121 259.131 315.765 259.618 316.248 260.202C316.712 260.803 317.041 261.542 316.957 262.363C316.313 261.858 315.9 261.348 315.468 260.824C315.056 260.284 314.652 259.766 314.303 259.027Z" fill="#FFB5BE"/>
<path d="M314.605 262.286C315.585 262.783 316.3 263.612 316.835 264.522C317.347 265.446 317.695 266.482 317.62 267.58C316.94 266.723 316.469 265.871 315.967 265.016C315.488 264.147 314.997 263.307 314.605 262.286Z" fill="#FFB5BE"/>
<path d="M318.945 266.72C319.609 267.414 319.993 268.223 320.307 269.054C320.591 269.895 320.805 270.764 320.727 271.723C320.055 271.014 319.675 270.215 319.365 269.39C319.084 268.554 318.875 267.694 318.945 266.72Z" fill="#FFB5BE"/>
<path d="M320.984 274.05C321.697 274.74 322.069 275.636 322.271 276.551C322.445 277.472 322.455 278.443 322.065 279.356C321.663 278.454 321.48 277.611 321.292 276.751C321.131 275.886 320.969 275.036 320.984 274.05Z" fill="#FFB5BE"/>
<path d="M323.405 281.479C323.959 282.312 324.209 283.172 324.388 284.051C324.536 284.934 324.609 285.827 324.388 286.804C323.839 286.006 323.583 285.124 323.405 284.232C323.255 283.335 323.18 282.42 323.405 281.479Z" fill="#FFB5BE"/>
<path d="M325.667 290.658C326.231 291.434 326.536 292.231 326.815 293.046C327.067 293.87 327.285 294.695 327.279 295.656C326.56 295.014 326.151 294.199 325.864 293.352C325.605 292.499 325.461 291.598 325.667 290.658Z" fill="#FFB5BE"/>
<path d="M327.752 298.46C328.276 299.015 328.512 299.67 328.673 300.334C328.805 301.004 328.864 301.695 328.619 302.419C328.083 301.823 327.853 301.195 327.696 300.547C327.571 299.892 327.517 299.226 327.752 298.46Z" fill="#FFB5BE"/>
<path d="M329.456 305.806C330.021 306.278 330.308 306.87 330.523 307.482C330.708 308.103 330.823 308.751 330.637 309.464C330.06 308.958 329.78 308.387 329.572 307.788C329.392 307.18 329.285 306.555 329.456 305.806Z" fill="#FFB5BE"/>
<path d="M300.043 251.751C300.981 251.299 302.039 251.306 303.016 251.535C303.984 251.79 304.92 252.284 305.533 253.126C304.515 252.967 303.661 252.715 302.772 252.506C301.889 252.27 301.019 252.088 300.043 251.751Z" fill="#FFB5BE"/>
<path d="M294.255 253.592C294.321 253.056 294.663 252.762 295.033 252.602C295.415 252.467 295.865 252.451 296.279 252.803C295.965 253.239 295.699 253.402 295.397 253.534C295.085 253.639 294.78 253.698 294.255 253.592Z" fill="#FFB5BE"/>
<path d="M370.197 88.8322C370.828 87.8349 371.887 87.1949 373 86.8695C374.119 86.5642 375.357 86.5589 376.413 87.0842C375.277 87.3522 374.275 87.5376 373.269 87.8309C372.259 88.1029 371.304 88.4656 370.197 88.8322Z" fill="#FFB5BE"/>
<path d="M383.363 87.9989C384.375 88.0149 385.283 88.4496 386.051 89.0296C386.803 89.6296 387.449 90.4015 387.711 91.3789C386.829 90.8975 386.148 90.3549 385.437 89.8189C384.744 89.2589 384.048 88.7322 383.363 87.9989Z" fill="#FFB5BE"/>
<path d="M388.252 95.1149C389.153 96.0989 389.773 97.1962 390.328 98.3269C390.856 99.4709 391.311 100.646 391.501 101.967C390.607 101.006 389.981 99.8949 389.424 98.7562C388.896 97.6029 388.433 96.4149 388.252 95.1149Z" fill="#FFB5BE"/>
<path d="M393.877 102.756C394.933 103.73 395.612 105.024 396.033 106.375C396.429 107.732 396.58 109.188 396.235 110.583C395.787 109.226 395.475 107.943 395.077 106.663C394.704 105.376 394.256 104.134 393.877 102.756Z" fill="#FFB5BE"/>
<path d="M395.58 114.228C396.219 114.927 396.563 115.696 396.836 116.491C397.08 117.295 397.251 118.119 397.14 119.06C396.509 118.391 396.16 117.604 395.885 116.798C395.637 115.982 395.463 115.14 395.58 114.228Z" fill="#FFB5BE"/>
<path d="M399.153 118.904C399.704 120.119 399.956 121.371 400.133 122.634C400.28 123.899 400.352 125.174 400.121 126.488C399.567 125.274 399.316 124.022 399.141 122.759C398.996 121.494 398.924 120.219 399.153 118.904Z" fill="#FFB5BE"/>
<path d="M400.688 130.751C401.233 131.647 401.48 132.591 401.653 133.548C401.797 134.508 401.864 135.483 401.633 136.506C401.084 135.611 400.839 134.667 400.667 133.71C400.525 132.748 400.457 131.774 400.688 130.751Z" fill="#FFB5BE"/>
<path d="M401.835 142.416C402.237 143.331 402.339 144.278 402.364 145.222C402.361 146.166 402.281 147.114 401.896 148.036C401.491 147.086 401.389 146.162 401.365 145.232C401.371 144.303 401.452 143.375 401.835 142.416Z" fill="#FFB5BE"/>
<path d="M401.317 162.67C401.74 163.086 401.859 163.523 401.907 163.964C401.921 164.408 401.861 164.858 401.496 165.327C401.072 164.911 400.952 164.474 400.909 164.032C400.895 163.587 400.956 163.139 401.317 162.67Z" fill="#FFB5BE"/>
<path d="M400.592 186.17C400.861 187.574 400.775 188.971 400.56 190.339C400.316 191.704 399.944 193.052 399.228 194.291C399.176 192.864 399.361 191.52 399.575 190.174C399.816 188.834 400.08 187.502 400.592 186.17Z" fill="#FFB5BE"/>
<path d="M397.98 202.88C398.036 204.424 397.791 205.931 397.472 207.418C397.125 208.896 396.703 210.363 395.989 211.735C395.939 210.155 396.181 208.67 396.497 207.198C396.844 205.732 397.261 204.287 397.98 202.88Z" fill="#FFB5BE"/>
<path d="M394.661 225.332C394.551 226.694 394.292 227.935 394.069 229.2C393.819 230.459 393.611 231.71 393.217 233.019C392.817 231.706 392.853 230.334 393.087 229.015C393.349 227.702 393.815 226.412 394.661 225.332Z" fill="#FFB5BE"/>
<path d="M347.904 135.858C348.189 133.776 348.204 131.643 347.944 129.53C348.423 131.604 348.636 133.756 348.569 135.914L347.904 135.858Z" fill="#FFB5BE"/>
<path d="M346.14 138.491C346.335 136.216 346.393 133.923 346.312 131.627C346.615 133.904 346.78 136.206 346.805 138.516L346.14 138.491Z" fill="#FFB5BE"/>
<path d="M344.463 142.295C345.249 139.546 345.527 136.628 345.259 133.739C345.747 136.599 345.701 139.571 345.111 142.454L344.463 142.295Z" fill="#FFB5BE"/>
<path d="M342.328 144.632C343.488 140.978 343.679 136.984 342.841 133.18C343.893 136.93 343.948 140.984 342.969 144.815L342.328 144.632Z" fill="#FFB5BE"/>
<path d="M340.259 147.762C341.305 143.492 341.333 138.947 340.315 134.615C341.548 138.891 341.763 143.483 340.911 147.904L340.259 147.762Z" fill="#FFB5BE"/>
<path d="M337.945 149.438C338.529 145.502 338.475 141.451 337.775 137.498C338.692 141.407 338.979 145.482 338.607 149.516L337.945 149.438Z" fill="#FFB5BE"/>
<path d="M335.889 152.091C336.295 151.414 336.393 150.551 336.452 149.688C336.511 148.818 336.548 147.946 336.556 147.071C336.577 145.323 336.488 143.572 336.303 141.827C336.599 143.556 336.799 145.306 336.889 147.064C336.937 147.944 336.956 148.824 336.951 149.707C336.943 150.582 336.919 151.53 336.473 152.411L335.889 152.091Z" fill="#FFB5BE"/>
<path d="M333.395 154.004C333.733 151.264 333.817 148.483 333.644 145.707C334.039 148.46 334.18 151.259 334.059 154.059L333.395 154.004Z" fill="#FFB5BE"/>
<path d="M331.004 155.33C331.24 153.735 331.331 152.11 331.275 150.478C331.552 152.087 331.685 153.73 331.669 155.382L331.004 155.33Z" fill="#FFB5BE"/>
<path d="M328.404 157.675C327.844 155.455 327.708 153.151 327.991 150.92C327.929 153.168 328.293 155.406 329.04 157.482L328.404 157.675Z" fill="#FFB5BE"/>
<path d="M326.097 159.163C326.071 158.063 326.147 156.972 326.323 155.908C326.368 156.986 326.517 158.05 326.759 159.079L326.097 159.163Z" fill="#FFB5BE"/>
<path d="M206.8 462.215L209.813 456.746L207.728 462.586L206.8 462.215Z" fill="#FFB5BE"/>
<path d="M210.559 461.094C211.737 458.702 213.125 456.43 214.693 454.31C213.405 456.611 212.331 459.014 211.481 461.479L210.559 461.094Z" fill="#FFB5BE"/>
<path d="M214.589 460.438C216.021 457.582 217.935 455.004 220.207 452.842C218.177 455.232 216.584 457.954 215.507 460.838L214.589 460.438Z" fill="#FFB5BE"/>
<path d="M219.929 460.334C221.604 456.939 223.752 453.806 226.279 451.052C224.008 454.019 222.176 457.294 220.845 460.735L219.929 460.334Z" fill="#FFB5BE"/>
<path d="M226.423 459.762C228.131 456.228 230.441 453.024 233.205 450.322C230.685 453.252 228.696 456.6 227.341 460.159L226.423 459.762Z" fill="#FFB5BE"/>
<path d="M233.783 459.823C236.219 456.066 239.167 452.671 242.505 449.756C239.396 452.912 236.744 456.488 234.64 460.336L233.783 459.823Z" fill="#FFB5BE"/>
<path d="M244.336 460.543C246.441 456.639 249.625 453.388 253.388 451.224C249.803 453.671 246.956 457.103 245.233 460.984L244.336 460.543Z" fill="#FFB5BE"/>
<path d="M252.684 462.155C255.344 458.554 258.435 455.296 261.856 452.472C258.656 455.546 255.849 458.998 253.511 462.719L252.684 462.155Z" fill="#FFB5BE"/>
<path d="M264.087 464.847C267.197 461.648 270.397 458.367 274.289 456.112C270.579 458.652 267.693 462.098 264.829 465.518L264.087 464.847Z" fill="#FFB5BE"/>
<path d="M275.177 469.806C276.948 468.1 278.739 466.386 280.689 464.858C282.635 463.334 284.756 461.999 287.071 461.15C284.82 462.155 282.823 463.612 281.011 465.24C279.192 466.874 277.544 468.682 275.896 470.503L275.177 469.806Z" fill="#FFB5BE"/>
<path d="M290.815 478.516C293.315 476.487 296.156 474.927 299.151 473.918C296.279 475.236 293.672 477.062 291.484 479.259L290.815 478.516Z" fill="#FFB5BE"/>
<path d="M450.988 368.467C450.469 367.044 450.317 365.535 450.515 364.115C450.651 365.543 451.137 366.894 451.884 368.024L450.988 368.467Z" fill="#FFB5BE"/>
<path d="M448.793 370.59C447.773 368.714 447.365 366.579 447.581 364.559C447.699 366.587 448.444 368.524 449.632 370.044L448.793 370.59Z" fill="#FFB5BE"/>
<path d="M446.161 373.02C444.695 371.08 443.747 368.811 443.389 366.491C444.073 368.738 445.308 370.77 446.916 372.364L446.161 373.02Z" fill="#FFB5BE"/>
<path d="M443.408 376.027C441.749 373.431 440.717 370.491 440.379 367.506C441.045 370.435 442.381 373.168 444.22 375.444L443.408 376.027Z" fill="#FFB5BE"/>
<path d="M440.012 379.046C437.897 376.494 436.576 373.367 436.204 370.172C436.905 373.312 438.521 376.188 440.748 378.37L440.012 379.046Z" fill="#FFB5BE"/>
<path d="M436.693 383.768C434.463 380.504 432.76 376.911 431.655 373.168C433.076 376.803 435.059 380.188 437.496 383.17L436.693 383.768Z" fill="#FFB5BE"/>
<path d="M430.803 389.754L427.203 384.3C426.04 382.463 424.971 380.46 424.708 378.282C425.14 380.434 426.332 382.292 427.616 384.018L431.615 389.171L430.803 389.754Z" fill="#FFB5BE"/>
<path d="M426.363 396.338C425.469 396.47 424.833 395.948 424.384 395.548C423.933 395.115 423.533 394.691 423.123 394.248C422.315 393.36 421.561 392.43 420.861 391.462C419.461 389.527 418.3 387.432 417.381 385.248C418.451 387.363 419.747 389.352 421.257 391.155C422.011 392.058 422.812 392.915 423.659 393.724C424.48 394.455 425.473 395.556 426.165 395.358L426.363 396.338Z" fill="#FFB5BE"/>
<path d="M420.484 404.618C416.709 401.363 414.32 397.039 412.016 392.831C414.599 396.875 417.303 401.003 421.109 403.838L420.484 404.618Z" fill="#FFB5BE"/>
<path d="M415.737 413.883C412.904 413.296 410.693 411.383 408.984 409.328C408.115 408.29 407.332 407.202 406.541 406.118C405.761 405.035 405.008 403.863 404.741 402.539C405.091 403.843 405.9 404.939 406.74 405.966C407.593 406.995 408.443 408.032 409.357 408.995C411.152 410.911 413.387 412.548 415.904 412.896L415.737 413.883Z" fill="#FFB5BE"/>
<path d="M409.959 422.651C405.136 420.024 401.184 415.954 398.721 411.162C401.475 415.792 405.619 419.523 410.409 421.759L409.959 422.651Z" fill="#FFB5BE"/>
<path d="M401.553 442.338C397.096 440.354 393.205 437.231 390.339 433.392C393.467 437.023 397.507 439.802 401.928 441.411L401.553 442.338Z" fill="#FFB5BE"/>
<path d="M297.569 351.115L299.708 350.443L298.075 351.979L297.569 351.115Z" fill="#FFB5BE"/>
<path d="M298.231 353.454C298.913 353.392 299.612 353.212 300.283 352.907C299.813 353.476 299.233 353.987 298.56 354.398L298.231 353.454Z" fill="#FFB5BE"/>
<path d="M298.82 356.735L301.497 356.016L299.249 357.639L298.82 356.735Z" fill="#FFB5BE"/>
<path d="M299.259 360.459C300.292 360.068 301.301 359.578 302.269 358.991C301.513 359.835 300.671 360.62 299.751 361.331L299.259 360.459Z" fill="#FFB5BE"/>
<path d="M300.207 364.319C301.301 364.067 302.379 363.615 303.368 362.97C302.599 363.864 301.653 364.644 300.575 365.25L300.207 364.319Z" fill="#FFB5BE"/>
<path d="M301.837 369.956C303.087 369.572 304.293 368.931 305.353 368.06C304.535 369.16 303.48 370.126 302.251 370.867L301.837 369.956Z" fill="#FFB5BE"/>
<path d="M302.856 376.222L307.503 373.324L303.46 377.018L302.856 376.222Z" fill="#FFB5BE"/>
<path d="M304.141 381.683C306.097 380.93 307.939 379.792 309.528 378.335C308.184 380.02 306.499 381.476 304.576 382.584L304.141 381.683Z" fill="#FFB5BE"/>
<path d="M306.361 389.747C308.612 388.642 310.74 387.238 312.669 385.574C310.973 387.476 309.02 389.176 306.861 390.614L306.361 389.747Z" fill="#FFB5BE"/>
<path d="M308.524 399.444C311.104 398.019 313.551 396.315 315.804 394.362C313.783 396.555 311.519 398.547 309.056 400.291L308.524 399.444Z" fill="#FFB5BE"/>
<path d="M310.156 407.25C311.751 406.568 313.144 405.336 314.592 404.214L318.913 400.8L314.919 404.591C313.581 405.83 312.313 407.208 310.592 408.15L310.156 407.25Z" fill="#FFB5BE"/>
<path d="M313.113 418.751C314.76 417.944 316.136 416.527 317.587 415.242L321.908 411.332L317.939 415.598C316.604 416.991 315.369 418.544 313.592 419.628L313.113 418.751Z" fill="#FFB5BE"/>
<path d="M316.843 430.299C319.464 428.727 321.963 426.927 324.301 424.915C322.193 427.167 319.884 429.248 317.404 431.127L316.843 430.299Z" fill="#FFB5BE"/>
<path d="M390.909 242.496C391.101 243.518 391.053 244.456 390.979 245.402C390.875 246.344 390.745 247.276 390.361 248.243C389.955 247.283 389.905 246.284 389.984 245.307C390.092 244.334 390.329 243.363 390.909 242.496Z" fill="#FFB5BE"/>
<path d="M390.4 259.778C390.375 260.967 390.205 262.031 390.075 263.116C389.913 264.199 389.795 265.267 389.499 266.422C389.004 265.331 388.94 264.132 389.083 262.982C389.253 261.835 389.635 260.699 390.4 259.778Z" fill="#FFB5BE"/>
<path d="M384.241 285.058C384.463 285.946 384.387 286.772 384.239 287.586C384.061 288.392 383.808 289.184 383.256 289.915C383.032 289.027 383.109 288.199 383.259 287.387C383.439 286.58 383.692 285.788 384.241 285.058Z" fill="#FFB5BE"/>
<path d="M382.421 306.328C382.724 307.612 382.724 308.872 382.649 310.128C382.545 311.383 382.365 312.631 381.881 313.859C381.577 312.575 381.577 311.314 381.653 310.058C381.759 308.803 381.939 307.555 382.421 306.328Z" fill="#FFB5BE"/>
<path d="M382.776 325.371C382.588 327.303 382.181 329.146 381.763 330.992C381.316 332.831 380.859 334.662 380.161 336.474C380.079 334.531 380.365 332.627 380.791 330.763C381.245 328.904 381.837 327.072 382.776 325.371Z" fill="#FFB5BE"/>
<path d="M378.823 345.339C378.915 347.178 378.709 348.966 378.429 350.742C378.121 352.514 377.737 354.272 377.052 355.982C376.957 354.143 377.163 352.354 377.444 350.578C377.755 348.807 378.139 347.048 378.823 345.339Z" fill="#FFB5BE"/>
<path d="M375.74 366.327C375.353 367.999 374.944 369.56 374.669 371.171C374.368 372.776 374.209 374.383 373.988 376.086C373.419 374.456 373.393 372.684 373.685 370.995C374.001 369.308 374.641 367.658 375.74 366.327Z" fill="#FFB5BE"/>
<path d="M370.164 426.634C370.507 427.735 370.547 428.824 370.513 429.908C370.449 430.992 370.309 432.071 369.864 433.136C369.52 432.035 369.479 430.947 369.516 429.863C369.58 428.78 369.721 427.699 370.164 426.634Z" fill="#FFB5BE"/>
<path d="M366.553 465.348C366.477 467.66 366.247 469.902 366.071 472.159C365.865 474.412 365.717 476.662 365.4 478.952C364.925 476.684 364.895 474.366 365.075 472.074C365.285 469.784 365.707 467.504 366.553 465.348Z" fill="#FFB5BE"/>
<path d="M366.883 485.751C367.335 486.866 367.431 488.03 367.397 489.179C367.333 490.328 367.136 491.478 366.587 492.55C366.353 491.371 366.363 490.256 366.399 489.135C366.464 488.015 366.549 486.904 366.883 485.751Z" fill="#FFB5BE"/>
<path d="M363.108 493.436C363.459 494.27 363.507 495.086 363.48 495.899C363.424 496.712 363.293 497.519 362.857 498.312C362.503 497.479 362.455 496.662 362.483 495.848C362.54 495.036 362.673 494.228 363.108 493.436Z" fill="#FFB5BE"/>
<path d="M365.548 500.974C365.816 502.083 365.831 503.139 365.812 504.199C365.764 505.26 365.684 506.312 365.343 507.402C364.893 506.348 364.793 505.254 364.813 504.168C364.864 503.083 365.035 501.996 365.548 500.974Z" fill="#FFB5BE"/>
<path d="M362.396 510.727C362.751 511.776 362.803 512.814 362.783 513.848C362.731 514.883 362.603 515.914 362.171 516.933C361.812 515.886 361.76 514.847 361.784 513.812C361.837 512.779 361.965 511.747 362.396 510.727Z" fill="#FFB5BE"/>
<path d="M365.531 521.367C365.7 523.069 365.648 524.715 365.597 526.367C365.516 528.018 365.433 529.662 365.124 531.344C364.643 529.699 364.544 528.005 364.599 526.327C364.684 524.648 364.92 522.968 365.531 521.367Z" fill="#FFB5BE"/>
<path d="M361.62 525.584C361.896 528.481 361.868 531.367 361.768 534.25C361.636 537.131 361.429 540.008 360.917 542.875C360.639 539.978 360.667 537.092 360.769 534.209C360.903 531.328 361.109 528.45 361.62 525.584Z" fill="#FFB5BE"/>
<path d="M364.424 538.663C364.625 540.49 364.717 542.319 364.793 544.148C364.879 545.978 364.887 547.808 364.895 549.638C364.879 551.468 364.86 553.299 364.765 555.128C364.68 556.956 364.58 558.786 364.365 560.612C364.164 558.78 364.072 556.95 363.996 555.12C363.911 553.291 363.903 551.463 363.896 549.635C363.913 547.808 363.931 545.98 364.025 544.151C364.112 542.323 364.212 540.493 364.424 538.663Z" fill="#FFB5BE"/>
<path d="M360.44 547.972C360.791 548.662 360.839 549.332 360.812 549.999C360.756 550.663 360.625 551.321 360.188 551.96C359.836 551.271 359.788 550.6 359.815 549.935C359.873 549.271 360.007 548.612 360.44 547.972Z" fill="#FFB5BE"/>
<path d="M360.244 557.284C360.495 559.454 360.444 561.604 360.32 563.748C360.165 565.891 359.935 568.028 359.399 570.145C359.144 567.976 359.195 565.827 359.323 563.683C359.479 561.54 359.711 559.402 360.244 557.284Z" fill="#FFB5BE"/>
<path d="M363.525 566.595C363.86 568.602 363.892 570.6 363.849 572.596C363.776 574.591 363.628 576.584 363.173 578.568C362.836 576.56 362.804 574.562 362.851 572.566C362.925 570.571 363.075 568.578 363.525 566.595Z" fill="#FFB5BE"/>
<path d="M358.293 577.238C358.655 578.212 358.715 579.175 358.7 580.136C358.655 581.097 358.535 582.056 358.109 583.004C357.745 582.03 357.685 581.066 357.701 580.105C357.747 579.144 357.868 578.187 358.293 577.238Z" fill="#FFB5BE"/>
<path d="M316.977 359.814C317.604 360.539 317.939 361.348 318.203 362.18C318.439 363.022 318.601 363.884 318.471 364.835C317.844 364.111 317.508 363.299 317.247 362.466C317.012 361.624 316.851 360.763 316.977 359.814Z" fill="#FFB5BE"/>
<path d="M320.657 378.806C321.144 379.455 321.332 380.147 321.445 380.848C321.528 381.555 321.536 382.271 321.243 383.028C320.752 382.379 320.567 381.687 320.456 380.986C320.373 380.28 320.365 379.563 320.657 378.806Z" fill="#FFB5BE"/>
<path d="M325.656 391.011C326.331 392.351 326.704 393.732 327.005 395.131C327.277 396.535 327.473 397.951 327.375 399.448C326.703 398.134 326.327 396.738 326.025 395.331C325.755 393.916 325.556 392.484 325.656 391.011Z" fill="#FFB5BE"/>
<path d="M327.637 405.202C327.969 406.655 328.16 408.031 328.429 409.412C328.671 410.799 328.981 412.154 329.187 413.63C328.251 412.46 327.725 411.04 327.447 409.594C327.193 408.142 327.181 406.627 327.637 405.202Z" fill="#FFB5BE"/>
<path d="M331.903 412.288C332.513 413.76 332.824 415.275 333.063 416.799C333.271 418.328 333.404 419.868 333.235 421.452C332.621 419.983 332.309 418.468 332.075 416.943C331.867 415.414 331.735 413.874 331.903 412.288Z" fill="#FFB5BE"/>
<path d="M331.204 424.134C331.823 425.25 332.148 426.444 332.401 427.65C332.624 428.862 332.772 430.091 332.619 431.358C331.992 430.218 331.669 429.039 331.42 427.842C331.201 426.64 331.056 425.427 331.204 424.134Z" fill="#FFB5BE"/>
<path d="M334.187 427.827C334.872 428.639 335.241 429.583 335.497 430.548C335.725 431.52 335.843 432.527 335.616 433.567C335.063 432.662 334.777 431.732 334.528 430.79C334.307 429.839 334.125 428.886 334.187 427.827Z" fill="#FFB5BE"/>
<path d="M334.613 436.838C335.236 437.854 335.556 438.904 335.805 439.976C336.025 441.054 336.169 442.143 336.023 443.326C335.405 442.346 335.08 441.274 334.829 440.188C334.608 439.098 334.46 437.986 334.613 436.838Z" fill="#FFB5BE"/>
<path d="M337.885 435.507C338.764 437.355 339.349 439.278 339.863 441.218C340.348 443.167 340.757 445.132 340.872 447.175C339.991 445.33 339.407 443.407 338.895 441.466C338.413 439.516 338.003 437.55 337.885 435.507Z" fill="#FFB5BE"/>
<path d="M337.629 446.286C338.913 448.646 339.86 451.147 340.675 453.684C341.46 456.231 342.113 458.826 342.405 461.498C341.348 459.027 340.528 456.51 339.721 453.984C338.943 451.45 338.176 448.916 337.629 446.286Z" fill="#FFB5BE"/>
<path d="M338.624 457.083C339.143 457.838 339.416 458.584 339.68 459.347C339.913 460.119 340.128 460.886 340.144 461.802C339.417 461.235 339.003 460.46 338.728 459.654C338.481 458.838 338.365 457.967 338.624 457.083Z" fill="#FFB5BE"/>
<path d="M340.855 463.734C341.768 465.415 342.343 467.218 342.784 469.046C343.197 470.88 343.48 472.751 343.401 474.663C342.7 472.884 342.247 471.083 341.811 469.272C341.404 467.455 341.015 465.639 340.855 463.734Z" fill="#FFB5BE"/>
<path d="M343.375 457.526C344.344 458.811 344.948 460.295 345.371 461.818C345.765 463.346 345.981 464.936 345.78 466.534C345.196 465.038 344.815 463.559 344.405 462.075C344.024 460.584 343.617 459.114 343.375 457.526Z" fill="#FFB5BE"/>
<path d="M344.293 479.092C345.129 480.422 345.623 481.888 345.976 483.379C346.303 484.876 346.491 486.411 346.308 487.972C345.707 486.523 345.349 485.066 345.003 483.6C344.685 482.127 344.379 480.659 344.293 479.092Z" fill="#FFB5BE"/>
<path d="M9.92122 558.445C18.1916 550.592 27.8234 544.188 38.0744 539.036C40.6536 537.784 43.254 536.559 45.8854 535.4L53.908 532.228C56.6307 531.303 59.3867 530.474 62.1267 529.592L70.4707 527.371L78.948 525.724C81.7987 525.321 84.6387 524.851 87.4934 524.507L96.0947 523.851C98.968 523.739 101.843 523.717 104.709 523.708C116.18 523.862 127.641 525.404 138.515 528.839L138.439 529.332C116.225 526.018 93.4147 527.105 71.5867 532.217C49.7223 537.168 28.7322 546.162 10.2046 558.855L9.92122 558.445Z" fill="#FFB5BE"/>
<path d="M100.929 554.032C113.771 542.519 128.471 533.123 144.079 525.716C159.7 518.3 176.225 512.828 193.101 508.98C209.984 505.131 227.204 502.866 244.463 501.63C261.729 500.393 279.043 500.175 296.315 500.409L296.189 505.386C279.013 504.738 261.828 504.542 244.685 505.355C227.549 506.169 210.444 508.003 193.625 511.412C176.819 514.821 160.3 519.851 144.599 526.845C128.913 533.835 114.044 542.833 100.929 554.032Z" fill="#FFB5BE"/>
<path d="M398.145 494.166C425.215 494.712 451.801 502.652 474.94 516.116C498.084 529.575 517.947 548.668 531.568 571.539C517.239 549.104 496.921 530.827 473.723 518.287C450.527 505.738 424.287 498.85 398.121 499.142L398.145 494.166Z" fill="#FFB5BE"/>
<path d="M282.423 573.812C289.988 575.162 297.415 576.775 304.868 578.242L316.035 580.443C319.767 581.115 323.475 581.895 327.191 582.675C334.605 584.266 342.036 586.107 349.596 587.03C357.147 587.952 364.792 588.142 372.339 587.504C376.113 587.211 379.855 586.703 383.56 586.128C387.261 585.532 390.943 584.845 394.541 583.919C401.749 582.068 408.672 579.332 415.155 575.869C421.645 572.417 427.653 568.068 432.765 562.744C435.263 560.116 437.457 557.152 438.947 553.854C440.416 550.575 441.116 546.851 440.115 543.183L440.577 542.999C442.476 546.48 442.471 550.874 441.343 554.712C440.239 558.608 438.193 562.147 435.736 565.3C430.855 571.532 424.595 576.657 417.711 580.53C410.805 584.402 403.249 586.928 395.593 588.504C391.755 589.292 387.891 589.827 384.012 590.096C380.136 590.381 376.253 590.351 372.4 590.227C364.687 589.93 357.065 589.233 349.435 588.627C341.812 587.995 334.116 587.745 326.491 586.759C322.681 586.269 318.893 585.614 315.148 584.76C311.393 583.956 307.667 583.026 303.969 581.992C296.581 579.902 289.291 577.454 282.276 574.287L282.423 573.812Z" fill="#FFB5BE"/>
</svg>
